{"glyphs":{"0":{"ha":624,"x_min":22,"x_max":608,"o":"m 318 739 q 226 681 256 739 q 196 497 196 624 l 196 360 q 226 172 196 229 q 318 114 256 114 q 410 174 381 114 q 439 365 439 235 l 439 494 q 410 680 439 621 q 318 739 381 739 m 313 874 q 435 849 381 874 q 529 772 490 825 q 588 635 568 719 q 608 433 608 551 q 588 228 608 314 q 529 87 568 142 q 435 6 490 32 q 313 -21 381 -21 q 190 5 243 -21 q 99 85 136 31 q 42 224 61 139 q 22 431 22 310 q 42 635 22 551 q 99 772 61 719 q 190 849 136 825 q 313 874 243 874 z "},"1":{"ha":376,"x_min":6,"x_max":347,"o":"m 347 0 l 181 0 l 181 582 l 6 582 l 6 699 q 97 708 60 699 q 159 735 135 717 q 195 781 183 754 q 211 846 207 808 l 347 846 l 347 0 z "},"2":{"ha":592,"x_min":6,"x_max":586,"o":"m 586 0 l 6 0 q 16 110 6 60 q 55 209 26 160 q 133 310 83 258 q 263 425 183 363 q 335 483 304 458 q 384 530 365 508 q 412 572 403 551 q 421 618 421 593 q 387 707 421 683 q 303 731 353 731 q 214 699 244 731 q 178 579 183 668 l 17 579 q 37 702 17 647 q 94 795 57 757 q 182 853 131 833 q 294 874 233 874 q 405 858 353 874 q 497 813 457 843 q 560 738 536 782 q 583 633 583 693 q 571 540 583 581 q 529 463 558 500 q 453 386 500 425 q 338 299 406 347 q 291 259 313 281 q 253 216 269 238 q 228 176 238 194 q 218 146 219 158 l 586 146 l 586 0 z "},"3":{"ha":610,"x_min":17,"x_max":599,"o":"m 306 882 q 410 865 361 882 q 494 818 458 849 q 550 744 529 788 q 571 650 571 701 q 546 539 571 592 q 471 458 521 486 q 566 386 533 433 q 599 256 599 339 q 574 140 599 192 q 509 53 550 89 q 413 -1 468 18 q 297 -21 358 -21 q 183 -1 235 -21 q 94 54 131 18 q 37 142 57 90 q 17 260 17 194 l 178 260 q 210 151 178 185 q 304 117 242 117 q 392 152 357 117 q 426 246 426 188 q 383 349 426 317 q 236 382 340 382 l 236 503 q 367 531 329 503 q 406 624 406 560 q 375 716 406 683 q 300 749 344 749 q 219 712 251 749 q 186 608 186 675 l 31 608 q 51 720 31 669 q 108 807 71 771 q 194 863 144 843 q 306 882 244 882 z "},"4":{"ha":606,"x_min":6,"x_max":600,"o":"m 165 317 l 340 317 l 340 617 l 165 317 m 504 317 l 600 317 l 600 186 l 504 186 l 504 0 l 338 0 l 338 186 l 6 186 l 6 332 l 317 854 l 504 854 l 504 317 z "},"5":{"ha":624,"x_min":33,"x_max":613,"o":"m 581 713 l 196 713 l 196 483 q 274 532 229 519 q 365 544 318 544 q 462 526 417 544 q 540 474 507 507 q 593 394 574 440 q 613 294 613 349 q 591 162 613 221 q 531 63 569 103 q 438 1 492 22 q 318 -21 383 -21 q 209 -3 260 -21 q 120 49 158 15 q 59 128 82 82 q 33 229 36 174 l 200 229 q 235 146 206 176 q 310 115 265 115 q 407 162 369 115 q 444 279 444 208 q 407 372 444 339 q 318 406 369 406 q 208 336 244 406 l 33 336 l 33 854 l 581 854 l 581 713 z "},"6":{"ha":619,"x_min":19,"x_max":600,"o":"m 436 271 q 401 378 436 338 q 313 418 367 418 q 222 377 257 418 q 186 274 186 336 q 224 158 186 203 q 317 114 261 114 q 404 158 372 114 q 436 271 436 203 m 419 660 q 329 739 413 739 q 225 674 258 739 q 183 469 192 608 q 247 526 207 504 q 336 549 286 549 q 444 528 396 549 q 528 472 493 508 q 581 384 563 435 q 600 271 600 333 q 580 155 600 208 q 523 63 560 101 q 434 1 486 24 q 319 -21 382 -21 q 94 84 168 -21 q 19 390 19 189 q 99 757 19 640 q 338 874 178 874 q 506 819 442 874 q 585 660 571 764 l 419 660 z "},"7":{"ha":608,"x_min":6,"x_max":603,"o":"m 603 725 q 380 381 456 565 q 294 0 304 196 l 122 0 q 211 369 138 188 q 422 706 285 550 l 6 706 l 6 854 l 603 854 l 603 725 z "},"8":{"ha":631,"x_min":19,"x_max":611,"o":"m 315 385 q 223 349 251 385 q 194 253 194 313 q 228 153 194 193 q 315 114 261 114 q 409 156 379 114 q 439 253 439 197 q 409 348 439 311 q 315 385 379 385 m 315 739 q 237 708 263 739 q 211 626 211 676 q 237 545 211 576 q 315 514 263 514 q 394 545 368 514 q 419 626 419 576 q 394 708 419 676 q 315 739 368 739 m 483 465 q 576 381 542 439 q 611 253 611 324 q 593 143 611 193 q 538 56 575 93 q 446 -1 501 19 q 317 -21 390 -21 q 188 0 243 -21 q 94 57 132 21 q 38 142 57 93 q 19 246 19 190 q 53 373 19 318 q 153 458 86 428 q 78 538 100 486 q 57 643 57 589 q 76 732 57 690 q 131 805 96 774 q 213 855 165 836 q 317 874 260 874 q 427 856 379 874 q 508 806 475 838 q 556 735 540 775 q 572 649 572 694 q 552 540 572 590 q 483 465 532 490 z "},"9":{"ha":619,"x_min":19,"x_max":600,"o":"m 183 571 q 192 510 183 539 q 218 461 201 482 q 257 428 235 440 q 307 415 279 415 q 357 428 333 415 q 397 461 381 440 q 424 510 414 482 q 433 568 433 538 q 424 633 433 603 q 396 688 414 664 q 354 725 378 711 q 303 739 331 739 q 253 725 275 739 q 215 688 231 711 q 192 635 200 665 q 183 571 183 604 m 200 193 q 290 114 206 114 q 393 171 358 114 q 436 364 428 228 q 373 307 413 329 q 283 285 333 285 q 175 306 224 285 q 92 366 126 328 q 38 456 57 404 q 19 571 19 508 q 40 688 19 633 q 97 785 60 743 q 185 850 133 826 q 300 874 238 874 q 431 843 375 874 q 525 756 488 813 q 581 620 563 700 q 600 443 600 540 q 520 88 600 197 q 282 -21 440 -21 q 113 34 178 -21 q 35 193 49 89 l 200 193 z "}," ":{"ha":318,"x_min":0,"x_max":0,"o":""},"!":{"ha":246,"x_min":29,"x_max":218,"o":"m 210 0 l 36 0 l 36 168 l 210 168 l 210 0 m 214 854 q 218 758 218 810 q 168 236 218 544 l 79 236 q 29 763 29 544 q 30 812 29 789 q 36 854 31 835 l 214 854 z "},"\"":{"ha":389,"x_min":29,"x_max":360,"o":"m 144 532 l 29 532 l 29 854 l 144 854 l 144 532 m 360 532 l 242 532 l 242 854 l 360 854 l 360 532 z "},"#":{"ha":631,"x_min":11,"x_max":631,"o":"m 272 488 l 251 343 l 368 343 l 389 488 l 272 488 m 514 594 l 631 594 l 615 488 l 500 488 l 479 343 l 596 343 l 582 236 l 465 236 l 433 0 l 318 0 l 354 236 l 238 236 l 206 0 l 94 0 l 126 236 l 11 236 l 24 343 l 140 343 l 161 488 l 46 488 l 60 594 l 175 594 l 208 831 l 318 831 l 286 594 l 403 594 l 435 831 l 547 831 l 514 594 z "},"$":{"ha":604,"x_min":18,"x_max":604,"o":"m 340 107 q 419 142 390 110 q 447 215 447 174 q 419 291 447 260 q 340 335 390 322 l 340 107 m 288 719 q 213 688 240 717 q 186 622 186 660 q 213 552 186 583 q 288 514 239 521 l 288 719 m 340 846 q 523 775 463 832 q 590 597 583 718 l 439 597 q 410 692 432 665 q 340 719 389 719 l 340 497 q 478 443 426 469 q 558 386 531 417 q 595 319 586 356 q 604 235 604 282 q 533 54 604 122 q 340 -21 463 -14 l 340 -71 l 288 -71 l 288 -21 q 81 56 144 -8 q 18 256 18 119 l 172 256 q 185 188 178 214 q 206 146 193 163 q 239 121 219 129 q 288 107 258 113 l 288 356 q 176 393 224 372 q 97 442 129 414 q 49 509 65 471 q 33 600 33 547 q 53 694 33 650 q 106 772 72 739 q 187 825 140 806 q 288 846 233 844 l 288 903 l 340 903 l 340 846 z "},"%":{"ha":1007,"x_min":17,"x_max":1007,"o":"m 235 721 q 165 694 193 721 q 138 625 138 667 q 165 560 138 583 q 233 536 192 536 q 300 560 274 536 q 326 625 326 585 q 299 696 326 671 q 235 721 271 721 m 885 197 q 857 270 885 244 q 790 296 829 296 q 723 268 749 296 q 697 200 697 240 q 725 135 697 160 q 793 111 753 111 q 858 134 833 111 q 885 197 883 157 m 315 -24 l 229 -24 l 701 846 l 789 846 l 315 -24 m 450 625 q 433 539 450 578 q 388 472 417 500 q 319 429 358 444 q 235 414 281 414 q 148 430 188 414 q 79 475 108 446 q 33 545 50 504 q 17 636 17 586 q 34 716 17 678 q 81 783 51 754 q 150 828 111 811 q 231 846 189 846 q 313 828 274 846 q 383 779 353 810 q 432 708 414 749 q 450 625 450 668 m 1007 194 q 989 113 1006 150 q 943 47 972 75 q 875 3 914 19 q 790 -12 836 -12 q 706 3 744 -12 q 638 49 667 19 q 592 119 608 78 q 575 213 575 161 q 592 294 575 257 q 639 359 610 332 q 707 401 668 386 q 790 417 746 417 q 873 401 833 417 q 942 356 913 385 q 990 285 972 326 q 1007 194 1007 244 z "},"&":{"ha":646,"x_min":24,"x_max":617,"o":"m 349 714 q 226 686 261 714 q 192 596 192 658 q 228 516 192 542 q 349 490 264 490 l 349 369 q 229 338 272 369 q 186 240 186 307 q 219 148 186 188 q 328 108 253 108 q 457 260 457 108 l 457 490 l 617 490 l 617 260 q 596 141 617 194 q 537 50 575 88 q 446 -8 499 13 q 329 -29 393 -29 q 199 -9 256 -29 q 103 47 143 11 q 44 132 64 83 q 24 238 24 181 q 31 299 24 268 q 53 358 39 331 q 85 406 67 385 q 126 436 104 426 q 26 615 26 488 q 50 713 26 668 q 116 788 74 757 q 218 837 158 819 q 349 854 278 854 l 349 714 z "},"'":{"ha":169,"x_min":29,"x_max":144,"o":"m 144 532 l 29 532 l 29 854 l 144 854 l 144 532 z "},"(":{"ha":351,"x_min":21,"x_max":351,"o":"m 351 872 q 193 317 193 614 q 351 -249 193 18 l 229 -249 q 148 -119 186 -182 q 82 11 110 -56 q 38 151 54 78 q 21 310 21 224 q 229 872 21 611 l 351 872 z "},")":{"ha":346,"x_min":3,"x_max":333,"o":"m 125 872 q 333 308 333 582 q 122 -249 333 33 l 3 -249 q 161 307 161 6 q 3 872 161 610 l 125 872 z "},"*":{"ha":635,"x_min":15,"x_max":624,"o":"m 624 568 l 433 510 l 557 335 l 443 253 l 318 419 l 196 253 l 79 335 l 203 510 l 15 568 l 58 699 l 242 639 l 242 854 l 393 854 l 393 639 l 578 699 l 624 568 z "},"+":{"ha":564,"x_min":29,"x_max":535,"o":"m 535 389 l 349 389 l 349 203 l 215 203 l 215 389 l 29 389 l 29 522 l 215 522 l 215 708 l 349 708 l 349 522 l 535 522 l 535 389 z "},",":{"ha":236,"x_min":29,"x_max":208,"o":"m 208 174 q 186 -71 208 -8 q 29 -200 147 -183 l 29 -136 q 128 0 124 -111 l 29 0 l 29 174 l 208 174 z "},"-":{"ha":385,"x_min":17,"x_max":349,"o":"m 349 256 l 17 256 l 17 411 l 349 411 l 349 256 z "},".":{"ha":236,"x_min":29,"x_max":208,"o":"m 208 0 l 29 0 l 29 174 l 208 174 l 208 0 z "},"/":{"ha":378,"x_min":-7,"x_max":378,"o":"m 131 -24 l -7 -24 l 238 878 l 378 878 l 131 -24 z "},":":{"ha":211,"x_min":13,"x_max":190,"o":"m 190 0 l 13 0 l 13 174 l 190 174 l 190 0 m 190 436 l 13 436 l 13 608 l 190 608 l 190 436 z "},";":{"ha":196,"x_min":10,"x_max":190,"o":"m 188 174 q 188 146 188 164 q 189 108 189 128 q 190 69 189 88 q 190 43 190 51 q 181 -57 190 -15 q 151 -127 172 -99 q 94 -173 129 -156 q 10 -200 60 -190 l 10 -136 q 110 0 103 -107 l 10 0 l 10 174 l 188 174 m 188 436 l 10 436 l 10 608 l 188 608 l 188 436 z "},"<":{"ha":590,"x_min":29,"x_max":563,"o":"m 563 360 l 319 360 l 425 253 l 319 146 l 29 439 l 319 731 l 425 624 l 319 518 l 563 518 l 563 360 z "},"=":{"ha":457,"x_min":29,"x_max":428,"o":"m 428 244 l 29 244 l 29 376 l 428 376 l 428 244 m 428 506 l 29 506 l 29 640 l 428 640 l 428 506 z "},">":{"ha":569,"x_min":29,"x_max":563,"o":"m 269 146 l 164 253 l 269 360 l 29 360 l 29 518 l 269 518 l 164 624 l 269 731 l 563 439 l 269 146 z "},"?":{"ha":625,"x_min":21,"x_max":608,"o":"m 404 0 l 231 0 l 231 168 l 404 168 l 404 0 m 21 588 q 42 702 21 651 q 99 789 63 753 q 188 844 136 825 q 303 864 240 864 q 529 794 450 864 q 608 599 608 725 q 603 549 608 571 q 585 504 599 526 q 545 458 571 482 q 478 404 519 435 q 433 367 450 383 q 406 333 415 350 q 394 296 397 315 q 392 249 392 276 l 235 249 q 285 426 235 361 q 312 452 289 432 q 379 511 335 472 q 429 615 429 554 q 394 696 429 664 q 313 728 360 728 q 228 691 264 728 q 186 588 193 654 l 21 588 z "},"@":{"ha":897,"x_min":19,"x_max":878,"o":"m 471 563 q 374 520 413 563 q 336 411 336 478 q 357 314 336 344 q 432 283 378 283 q 485 297 461 283 q 525 335 508 311 q 551 393 542 360 q 560 465 560 426 q 471 563 560 563 m 643 346 q 633 300 633 317 q 640 280 633 285 q 657 275 647 275 q 705 294 682 275 q 745 344 728 313 q 773 415 763 375 q 783 497 783 456 q 759 625 783 569 q 693 718 735 681 q 594 775 651 756 q 472 794 538 794 q 326 762 392 794 q 215 676 261 729 q 143 556 168 624 q 118 419 118 489 q 210 163 118 249 q 458 76 303 76 q 549 81 504 76 q 635 92 594 85 q 710 109 676 99 q 765 132 743 119 l 818 38 q 768 15 797 26 q 695 -7 739 3 q 591 -23 651 -17 q 450 -29 531 -29 q 267 3 347 -29 q 131 94 186 36 q 48 234 76 153 q 19 413 19 315 q 53 600 19 514 q 148 749 88 686 q 292 847 208 811 q 474 882 375 882 q 632 858 558 882 q 760 787 706 833 q 847 671 815 740 q 878 511 878 601 q 859 378 878 440 q 806 269 840 315 q 725 196 772 222 q 622 169 678 169 q 575 192 593 169 q 549 238 557 214 q 482 188 518 201 q 394 174 446 174 q 320 194 351 174 q 268 246 289 214 q 237 317 247 278 q 226 397 226 357 q 243 505 226 454 q 290 594 260 556 q 362 654 321 632 q 453 676 403 676 q 593 601 544 676 l 610 664 l 710 664 l 643 346 z "},"A":{"ha":821,"x_min":4,"x_max":817,"o":"m 408 663 l 300 322 l 517 322 l 410 663 l 408 663 m 817 0 l 622 0 l 568 176 l 253 176 l 193 0 l 4 0 l 308 854 l 515 854 l 817 0 z "},"B":{"ha":733,"x_min":29,"x_max":733,"o":"m 201 375 l 201 146 l 428 146 q 523 181 486 146 q 560 268 560 215 q 520 349 560 324 q 431 375 481 375 l 201 375 m 201 706 l 201 521 l 418 521 q 503 544 471 521 q 535 614 535 568 q 507 684 535 663 q 408 706 479 706 l 201 706 m 450 854 q 638 792 568 854 q 707 621 707 729 q 603 460 707 499 q 699 383 665 438 q 733 254 733 329 q 656 68 733 136 q 414 0 578 0 l 29 0 l 29 854 l 450 854 z "},"C":{"ha":782,"x_min":19,"x_max":782,"o":"m 603 574 q 533 687 585 646 q 418 728 482 728 q 326 706 367 728 q 258 643 286 683 q 215 548 229 603 q 200 426 200 493 q 215 306 200 361 q 256 212 229 251 q 322 149 283 172 q 408 126 360 126 q 536 169 488 126 q 603 293 585 213 l 782 293 q 737 160 768 219 q 659 59 706 101 q 551 -6 613 17 q 414 -29 489 -29 q 258 -1 331 -29 q 133 84 186 28 q 49 224 79 140 q 19 417 19 307 q 47 611 19 525 q 126 758 75 697 q 251 850 178 818 q 417 882 325 882 q 562 858 497 882 q 673 792 626 833 q 747 694 719 750 q 782 574 775 638 l 603 574 z "},"D":{"ha":774,"x_min":29,"x_max":756,"o":"m 203 146 l 351 146 q 522 217 469 146 q 574 436 574 289 q 519 643 574 581 q 336 706 464 706 l 203 706 l 203 146 m 360 854 q 519 826 447 854 q 644 743 592 797 q 726 611 697 689 q 756 436 756 533 q 729 258 756 339 q 654 121 703 178 q 538 32 606 64 q 388 0 471 0 l 29 0 l 29 854 l 360 854 z "},"E":{"ha":678,"x_min":29,"x_max":678,"o":"m 657 704 l 203 704 l 203 522 l 621 522 l 621 372 l 203 372 l 203 151 l 678 151 l 678 0 l 29 0 l 29 854 l 657 854 l 657 704 z "},"F":{"ha":643,"x_min":29,"x_max":638,"o":"m 638 704 l 208 704 l 208 511 l 583 511 l 583 360 l 208 360 l 208 0 l 29 0 l 29 854 l 638 854 l 638 704 z "},"G":{"ha":847,"x_min":19,"x_max":1150,"o":"m 633 590 q 612 646 629 619 q 569 692 594 672 q 510 724 543 713 q 440 735 476 735 q 342 713 386 735 q 267 649 299 690 q 219 550 236 608 q 201 421 201 492 q 219 299 201 354 q 267 203 236 243 q 342 142 299 164 q 439 121 386 121 q 520 136 482 121 q 587 178 558 151 q 631 241 615 206 q 647 317 647 276 l 458 317 l 458 460 l 814 460 l 814 -35 q 841 -126 814 -100 q 904 -151 868 -151 q 970 -120 946 -151 q 994 -18 994 -89 l 1150 -18 q 1131 -142 1150 -89 q 1077 -230 1111 -194 q 997 -283 1043 -265 q 899 -300 951 -300 q 796 -281 842 -300 q 717 -228 750 -262 q 665 -147 683 -194 q 647 -43 647 -100 l 647 61 q 552 -8 610 13 q 407 -29 494 -29 q 248 6 319 -29 q 126 102 176 40 q 47 247 75 164 q 19 428 19 331 q 47 605 19 522 q 126 749 74 688 q 258 847 179 811 q 440 882 336 882 q 583 860 517 882 q 699 800 649 839 q 778 708 749 761 q 813 590 808 654 l 633 590 z "},"H":{"ha":749,"x_min":29,"x_max":721,"o":"m 721 0 l 542 0 l 542 383 l 208 383 l 208 0 l 29 0 l 29 854 l 208 854 l 208 532 l 542 532 l 542 854 l 721 854 l 721 0 z "},"I":{"ha":236,"x_min":29,"x_max":208,"o":"m 208 0 l 29 0 l 29 854 l 208 854 l 208 0 z "},"J":{"ha":583,"x_min":6,"x_max":556,"o":"m 556 239 q 485 51 556 122 q 275 -21 414 -21 q 164 -8 214 -21 q 78 41 114 6 q 24 140 43 76 q 6 303 6 203 l 6 322 l 174 322 l 174 275 q 197 158 174 192 q 275 125 219 125 q 356 156 336 125 q 376 256 376 186 l 376 854 l 556 854 l 556 239 z "},"K":{"ha":772,"x_min":29,"x_max":772,"o":"m 426 517 l 772 0 l 554 0 l 301 385 l 206 290 l 206 0 l 29 0 l 29 854 l 206 854 l 206 507 l 532 854 l 764 854 l 426 517 z "},"L":{"ha":638,"x_min":29,"x_max":632,"o":"m 208 156 l 632 156 l 632 0 l 29 0 l 29 854 l 208 854 l 208 156 z "},"M":{"ha":888,"x_min":29,"x_max":858,"o":"m 858 0 l 690 0 l 690 585 l 531 0 l 354 0 l 196 582 l 196 0 l 29 0 l 29 854 l 292 854 l 444 228 l 447 228 l 600 854 l 858 854 l 858 0 z "},"N":{"ha":754,"x_min":29,"x_max":725,"o":"m 725 0 l 547 0 l 196 574 l 196 0 l 29 0 l 29 854 l 218 854 l 558 296 l 558 854 l 725 854 l 725 0 z "},"O":{"ha":857,"x_min":19,"x_max":838,"o":"m 196 415 q 256 194 196 264 q 429 124 317 124 q 520 141 478 124 q 594 194 563 158 q 643 285 625 229 q 661 415 661 340 q 601 645 661 567 q 429 724 542 724 q 256 645 317 724 q 196 415 196 567 m 429 882 q 733 760 628 882 q 838 415 838 638 q 734 81 838 192 q 429 -29 631 -29 q 124 85 228 -29 q 19 419 19 199 q 47 614 19 528 q 126 759 74 700 q 254 850 178 818 q 429 882 331 882 z "},"P":{"ha":681,"x_min":29,"x_max":681,"o":"m 208 706 l 208 456 l 378 456 q 482 491 440 456 q 524 582 524 526 q 484 670 524 635 q 378 706 444 706 l 208 706 m 424 854 q 526 833 479 854 q 608 774 574 811 q 662 686 643 736 q 681 578 681 636 q 661 470 681 519 q 607 385 642 421 q 524 330 572 350 q 417 310 475 310 l 208 310 l 208 0 l 29 0 l 29 854 l 424 854 z "},"Q":{"ha":857,"x_min":19,"x_max":854,"o":"m 429 882 q 733 760 628 882 q 838 415 838 638 q 817 267 838 338 q 755 140 796 196 q 654 45 714 83 q 517 -6 594 7 q 543 -111 517 -78 q 610 -144 569 -144 q 672 -112 646 -144 q 697 -18 697 -81 l 854 -18 q 835 -131 854 -79 q 781 -221 815 -183 q 698 -279 746 -258 q 594 -300 650 -300 q 497 -281 542 -300 q 419 -228 451 -262 q 369 -147 388 -194 q 351 -43 351 -100 l 351 -15 q 103 114 188 7 q 19 419 19 221 q 47 614 19 528 q 126 759 74 700 q 254 850 178 818 q 429 882 331 882 m 196 415 q 256 194 196 264 q 429 124 317 124 q 520 141 478 124 q 594 194 563 158 q 643 285 625 229 q 661 415 661 340 q 601 645 661 567 q 429 724 542 724 q 256 645 317 724 q 196 415 196 567 z "},"R":{"ha":738,"x_min":29,"x_max":731,"o":"m 203 706 l 203 478 l 425 478 q 519 510 483 478 q 556 592 556 543 q 520 674 556 642 q 431 706 485 706 l 203 706 m 703 0 l 528 0 l 528 219 q 497 308 528 282 q 393 335 465 335 l 203 335 l 203 0 l 29 0 l 29 854 l 463 854 q 572 835 522 854 q 656 783 621 817 q 711 705 692 750 q 731 607 731 660 q 696 484 731 536 q 599 408 661 432 q 679 353 656 390 q 703 242 703 317 l 703 0 z "},"S":{"ha":718,"x_min":8,"x_max":710,"o":"m 511 601 q 459 697 506 664 q 342 731 413 731 q 235 703 279 731 q 190 628 190 675 q 221 566 190 592 q 322 524 251 540 q 422 499 379 510 q 497 478 464 488 q 555 459 529 468 q 604 439 581 450 q 681 371 653 415 q 710 256 710 326 q 684 139 710 190 q 615 51 658 88 q 513 -4 571 15 q 388 -24 454 -24 q 8 263 17 -24 l 181 263 q 233 158 182 196 q 364 121 285 121 q 428 128 397 121 q 484 151 460 136 q 522 185 508 165 q 536 229 536 206 q 404 338 536 306 q 236 383 293 364 q 154 413 179 401 q 57 492 88 443 q 26 615 26 540 q 47 719 26 671 q 108 803 68 768 q 206 860 147 839 q 342 881 265 881 q 474 860 413 881 q 581 804 535 840 q 653 717 626 768 q 683 601 681 665 l 511 601 z "},"T":{"ha":706,"x_min":6,"x_max":700,"o":"m 700 704 l 442 704 l 442 0 l 263 0 l 263 704 l 6 704 l 6 854 l 700 854 l 700 704 z "},"U":{"ha":747,"x_min":29,"x_max":718,"o":"m 718 293 q 626 58 718 138 q 367 -21 535 -21 q 120 54 211 -21 q 29 283 29 129 l 29 854 l 211 854 l 211 300 q 251 174 211 221 q 364 128 292 128 q 535 293 535 128 l 535 854 l 718 854 l 718 293 z "},"V":{"ha":756,"x_min":4,"x_max":751,"o":"m 461 0 l 293 0 l 4 854 l 194 854 l 381 254 l 565 854 l 751 854 l 461 0 z "},"W":{"ha":1096,"x_min":4,"x_max":1092,"o":"m 853 0 l 681 0 l 549 549 l 546 549 l 413 0 l 246 0 l 4 854 l 194 854 l 335 301 l 453 854 l 640 854 l 771 301 l 910 854 l 1092 854 l 853 0 z "},"X":{"ha":772,"x_min":6,"x_max":767,"o":"m 489 443 l 767 0 l 549 0 l 386 293 l 214 0 l 6 0 l 282 436 l 21 854 l 232 854 l 386 578 l 542 854 l 749 854 l 489 443 z "},"Y":{"ha":768,"x_min":4,"x_max":764,"o":"m 478 321 l 478 0 l 300 0 l 300 322 l 4 854 l 213 854 l 392 507 l 558 854 l 764 854 l 478 321 z "},"Z":{"ha":678,"x_min":6,"x_max":672,"o":"m 672 714 l 226 151 l 672 151 l 672 0 l 6 0 l 6 151 l 449 704 l 18 704 l 18 854 l 672 854 l 672 714 z "},"[":{"ha":331,"x_min":38,"x_max":331,"o":"m 331 746 l 185 746 l 185 -119 l 331 -119 l 331 -232 l 38 -232 l 38 860 l 331 860 l 331 746 z "},"\\":{"ha":371,"x_min":-7,"x_max":378,"o":"m 378 -24 l 238 -24 l -7 878 l 131 878 l 378 -24 z "},"]":{"ha":326,"x_min":13,"x_max":308,"o":"m 308 -232 l 13 -232 l 13 -119 l 161 -119 l 161 746 l 13 746 l 13 860 l 308 860 l 308 -232 z "},"^":{"ha":583,"x_min":19,"x_max":565,"o":"m 565 585 l 388 585 l 293 697 l 197 585 l 19 585 l 232 831 l 351 831 l 565 585 z "},"_":{"ha":663,"x_min":0,"x_max":663,"o":"m 663 -149 l 0 -149 l 0 -87 l 663 -87 l 663 -149 z "},"`":{"ha":447,"x_min":149,"x_max":349,"o":"m 349 707 l 226 707 l 149 799 l 293 799 l 349 707 z "},"a":{"ha":618,"x_min":17,"x_max":585,"o":"m 418 310 q 331 276 393 289 q 214 237 244 260 q 183 174 183 214 q 258 103 183 103 q 320 112 290 103 q 372 139 350 121 q 408 185 394 157 q 421 249 421 213 q 420 279 421 260 q 418 310 419 299 m 315 650 q 517 586 450 650 q 585 400 585 522 l 585 0 l 429 0 q 424 24 426 11 q 419 51 421 36 q 340 3 389 19 q 228 -12 292 -12 q 74 35 132 -12 q 17 165 17 82 q 38 269 17 231 q 99 331 60 308 q 191 364 138 353 q 307 383 244 375 q 385 406 357 390 q 414 449 414 421 q 381 503 414 485 q 307 521 347 521 q 233 495 263 521 q 197 426 203 469 l 38 426 q 110 591 46 532 q 315 650 174 650 z "},"b":{"ha":668,"x_min":33,"x_max":646,"o":"m 332 507 q 192 301 192 507 q 231 170 192 221 q 333 119 271 119 q 436 173 396 119 q 476 311 476 226 q 332 507 476 507 m 199 550 l 200 550 q 385 650 268 650 l 386 650 q 494 626 446 650 q 576 558 543 601 q 628 455 610 515 q 646 322 646 394 q 625 179 646 243 q 568 72 604 115 q 482 4 532 28 q 372 -19 432 -19 q 196 78 254 -19 l 194 0 l 33 0 l 33 864 l 199 864 l 199 550 z "},"c":{"ha":613,"x_min":22,"x_max":604,"o":"m 436 407 q 397 483 429 456 q 317 511 364 511 q 267 502 290 511 q 226 472 243 493 q 198 415 208 450 q 188 328 188 379 q 225 174 188 224 q 311 124 263 124 q 394 151 360 124 q 435 229 429 178 l 603 229 q 572 128 596 174 q 508 51 547 83 q 419 1 469 18 q 313 -17 369 -17 q 194 5 247 -17 q 103 69 142 26 q 43 175 64 111 q 22 324 22 239 q 44 470 22 408 q 103 572 65 532 q 197 631 142 611 q 318 650 251 650 q 520 585 444 650 q 604 407 596 519 l 436 407 z "},"d":{"ha":667,"x_min":19,"x_max":633,"o":"m 333 507 q 190 311 190 507 q 229 174 190 226 q 332 122 268 122 q 389 135 363 122 q 435 173 415 149 q 465 230 454 197 q 475 301 475 263 q 333 507 475 507 m 633 0 l 472 0 l 469 78 q 294 -17 413 -17 q 174 10 225 -17 q 88 84 122 38 q 37 192 54 131 q 19 322 19 253 q 38 455 19 394 q 90 558 56 515 q 172 626 124 601 q 282 650 221 650 q 467 550 397 650 l 467 864 l 633 864 l 633 0 z "},"e":{"ha":640,"x_min":19,"x_max":622,"o":"m 450 378 q 409 483 447 449 q 321 517 371 517 q 233 481 269 517 q 192 378 197 444 l 450 378 m 186 272 q 228 158 190 201 q 328 115 265 115 q 400 135 368 115 q 442 186 432 154 l 614 186 q 511 36 585 89 q 336 -17 438 -17 q 19 328 19 -17 q 99 563 19 475 q 325 650 178 650 q 622 272 622 650 l 186 272 z "},"f":{"ha":372,"x_min":6,"x_max":372,"o":"m 368 729 q 284 708 304 729 q 264 633 264 688 l 372 633 l 372 514 l 264 514 l 264 0 l 99 0 l 99 514 l 6 514 l 6 633 l 99 633 q 368 864 99 864 l 368 729 z "},"g":{"ha":675,"x_min":21,"x_max":642,"o":"m 338 504 q 194 311 194 504 q 235 176 194 226 q 338 126 275 126 q 440 174 400 126 q 479 301 479 221 q 338 504 479 504 m 642 -7 q 617 -133 642 -78 q 550 -225 593 -187 q 450 -281 507 -262 q 326 -300 393 -300 q 204 -282 260 -300 q 108 -229 149 -264 q 44 -145 67 -194 q 21 -35 21 -96 l 176 -35 q 215 -124 176 -93 q 315 -156 253 -156 q 428 -119 382 -156 q 475 -19 475 -82 l 475 85 q 410 18 457 42 q 301 -6 364 -6 q 170 22 224 -6 q 83 95 117 50 q 35 199 50 140 q 21 321 21 258 q 42 455 21 394 q 101 559 64 515 q 190 626 139 603 q 297 650 240 650 q 475 554 414 650 l 475 633 l 642 633 l 642 -7 z "},"h":{"ha":640,"x_min":33,"x_max":607,"o":"m 200 550 q 272 622 219 593 q 388 650 324 650 q 546 597 485 650 q 607 447 607 543 l 607 0 l 439 0 l 439 392 q 414 490 439 464 q 331 517 389 517 q 234 472 268 517 q 200 363 200 426 l 200 0 l 33 0 l 33 864 l 200 864 l 200 550 z "},"i":{"ha":229,"x_min":33,"x_max":200,"o":"m 200 0 l 33 0 l 33 633 l 200 633 l 200 0 m 200 708 l 33 708 l 33 864 l 200 864 l 200 708 z "},"j":{"ha":235,"x_min":-303,"x_max":201,"o":"m 201 -43 q 183 -147 201 -100 q 131 -228 164 -194 q 51 -281 97 -262 q -47 -300 6 -300 q -240 -231 -178 -300 q -303 -35 -303 -161 l -146 -35 q -126 -119 -146 -87 q -57 -151 -106 -151 q 13 -119 -7 -151 q 33 -36 33 -87 l 33 633 l 201 633 l 201 -43 m 201 708 l 33 708 l 33 864 l 201 864 l 201 708 z "},"k":{"ha":615,"x_min":33,"x_max":615,"o":"m 403 400 l 610 0 l 422 0 l 283 285 l 201 200 l 201 0 l 33 0 l 33 864 l 201 864 l 201 392 l 410 633 l 615 633 l 403 400 z "},"l":{"ha":233,"x_min":33,"x_max":200,"o":"m 200 0 l 33 0 l 33 864 l 200 864 l 200 0 z "},"m":{"ha":972,"x_min":33,"x_max":939,"o":"m 190 540 q 267 626 222 603 q 375 650 313 650 q 477 627 439 650 q 551 549 515 604 q 722 650 601 650 q 810 633 769 650 q 878 588 850 617 q 923 521 907 560 q 939 439 939 482 l 939 0 l 775 0 l 775 383 q 748 477 775 442 q 676 513 721 513 q 600 474 631 513 q 569 378 569 436 l 569 0 l 403 0 l 403 381 q 380 483 403 457 q 303 508 357 508 q 200 385 200 508 l 200 0 l 33 0 l 33 633 l 190 633 l 190 540 z "},"n":{"ha":640,"x_min":33,"x_max":607,"o":"m 193 540 q 272 622 222 593 q 397 650 321 650 q 481 636 443 650 q 547 596 519 622 q 591 530 575 569 q 607 439 607 490 l 607 0 l 439 0 l 439 383 q 415 483 439 457 q 331 508 390 508 q 200 363 200 508 l 200 0 l 33 0 l 33 633 l 193 633 l 193 540 z "},"o":{"ha":686,"x_min":19,"x_max":667,"o":"m 344 508 q 192 317 192 508 q 344 124 192 124 q 497 317 497 124 q 344 508 497 508 m 344 650 q 479 626 419 650 q 581 559 539 603 q 644 453 622 515 q 667 317 667 392 q 644 180 667 242 q 579 74 621 118 q 478 7 538 31 q 344 -17 418 -17 q 208 8 268 -17 q 106 76 147 32 q 42 181 64 119 q 19 317 19 243 q 42 453 19 392 q 107 558 65 514 q 209 626 149 601 q 344 650 269 650 z "},"p":{"ha":667,"x_min":33,"x_max":647,"o":"m 331 507 q 190 301 190 507 q 230 170 190 221 q 332 119 269 119 q 435 173 394 119 q 475 311 475 226 q 331 507 475 507 m 194 633 l 194 554 q 263 627 219 604 q 372 650 306 650 q 493 622 442 650 q 579 547 544 594 q 631 439 614 500 q 647 311 647 378 q 630 179 647 239 q 579 76 613 119 q 497 8 546 32 q 386 -17 449 -17 q 277 6 328 -17 q 199 79 226 28 l 199 -300 l 33 -300 l 33 633 l 194 633 z "},"q":{"ha":667,"x_min":19,"x_max":946,"o":"m 633 -11 q 656 -110 633 -69 q 715 -151 679 -151 q 768 -124 747 -151 q 789 -35 789 -97 l 946 -35 q 927 -145 946 -96 q 876 -229 908 -194 q 800 -282 844 -264 q 704 -300 756 -300 q 609 -281 653 -300 q 533 -226 565 -261 q 483 -143 501 -192 q 465 -36 465 -94 l 465 83 q 279 -17 399 -17 q 170 8 218 -17 q 89 75 122 32 q 38 178 56 118 q 19 311 19 239 q 39 450 19 388 q 94 557 58 513 q 181 626 131 601 q 294 650 232 650 q 472 556 411 650 l 472 633 l 633 633 l 633 -11 m 335 507 q 193 311 193 507 q 232 173 193 226 q 335 119 271 119 q 435 170 394 119 q 476 301 476 221 q 335 507 476 507 z "},"r":{"ha":406,"x_min":33,"x_max":400,"o":"m 400 478 q 354 482 376 482 q 200 329 200 482 l 200 0 l 33 0 l 33 633 l 190 633 l 190 557 q 233 607 211 589 q 279 635 256 625 q 328 647 303 644 q 378 649 353 649 l 400 649 l 400 478 z "},"s":{"ha":600,"x_min":11,"x_max":593,"o":"m 410 442 q 297 525 397 525 q 227 508 257 525 q 197 463 197 490 q 300 404 197 425 q 492 351 450 371 q 593 203 593 301 q 516 38 593 94 q 313 -19 439 -19 q 195 -3 250 -19 q 100 42 140 13 q 36 112 60 71 q 11 203 13 153 l 183 203 q 218 133 183 158 q 311 107 253 107 q 392 126 358 107 q 426 174 426 144 q 401 207 426 190 q 325 235 376 224 q 136 289 176 269 q 35 439 35 336 q 51 519 35 481 q 101 588 68 558 q 185 636 135 618 q 306 654 236 654 q 410 639 361 654 q 494 596 458 624 q 551 528 529 568 q 575 442 572 489 l 410 442 z "},"t":{"ha":581,"x_min":33,"x_max":547,"o":"m 547 514 l 199 514 l 199 253 q 221 160 199 193 q 294 128 243 128 q 368 160 344 128 q 392 251 392 192 l 392 417 l 547 417 l 547 235 q 533 139 547 185 q 487 58 518 93 q 407 3 456 24 q 292 -18 358 -18 q 174 3 222 -18 q 94 58 125 24 q 48 139 63 93 q 33 236 33 185 l 33 804 l 199 804 l 199 633 l 547 633 l 547 514 z "},"u":{"ha":636,"x_min":33,"x_max":603,"o":"m 603 0 l 444 0 l 444 89 q 249 -17 382 -17 q 162 0 201 -17 q 94 48 122 17 q 49 122 65 79 q 33 217 33 164 l 33 633 l 200 633 l 200 242 q 307 124 200 124 q 404 164 371 124 q 438 268 438 204 l 438 633 l 603 633 l 603 0 z "},"v":{"ha":638,"x_min":4,"x_max":633,"o":"m 406 0 l 231 0 l 4 633 l 190 633 l 322 215 l 457 633 l 633 633 l 406 0 z "},"w":{"ha":913,"x_min":4,"x_max":908,"o":"m 726 0 l 556 0 l 456 368 l 356 0 l 183 0 l 4 633 l 181 633 l 283 226 l 371 633 l 540 633 l 639 226 l 736 633 l 908 633 l 726 0 z "},"x":{"ha":632,"x_min":4,"x_max":628,"o":"m 411 322 l 628 0 l 424 0 l 313 190 l 204 0 l 4 0 l 217 322 l 10 633 l 213 633 l 319 449 l 426 633 l 621 633 l 411 322 z "},"y":{"ha":636,"x_min":33,"x_max":603,"o":"m 603 -17 q 581 -136 603 -83 q 519 -226 558 -189 q 426 -281 479 -262 q 313 -300 374 -300 q 103 -231 174 -300 q 33 -35 33 -161 l 189 -35 q 222 -124 189 -93 q 321 -156 254 -156 q 364 -146 343 -156 q 401 -119 385 -136 q 426 -76 417 -101 q 436 -19 436 -51 l 436 83 q 371 17 418 40 q 265 -7 324 -7 q 173 9 215 -7 q 99 56 131 25 q 51 128 68 86 q 33 222 33 169 l 33 633 l 200 633 l 200 247 q 307 129 200 129 q 401 163 365 129 q 436 247 436 196 l 436 633 l 603 633 l 603 -17 z "},"z":{"ha":565,"x_min":11,"x_max":557,"o":"m 547 497 l 225 136 l 557 136 l 557 0 l 11 0 l 11 129 l 335 500 l 33 500 l 33 633 l 547 633 l 547 497 z "},"{":{"ha":404,"x_min":29,"x_max":404,"o":"m 404 756 l 375 756 q 302 738 319 756 q 285 675 285 721 l 285 443 q 274 394 285 417 q 244 354 263 371 q 200 327 225 338 q 149 314 175 317 l 149 311 q 248 269 211 304 q 285 183 285 233 l 285 -51 q 301 -111 285 -94 q 368 -128 318 -128 l 404 -128 l 404 -232 l 400 -232 q 386 -233 393 -232 q 369 -233 379 -233 l 335 -233 q 184 -184 231 -233 q 138 -31 138 -135 q 139 1 138 -21 q 141 46 140 22 q 143 90 142 69 q 144 121 144 111 q 118 227 144 196 q 29 258 92 258 l 29 368 q 118 398 92 368 q 144 503 144 428 q 143 534 144 513 q 141 579 142 556 q 139 625 140 603 q 138 658 138 647 q 185 812 138 763 q 339 861 233 861 q 353 860 346 861 q 369 860 360 860 l 404 860 l 404 756 z "},"|":{"ha":217,"x_min":50,"x_max":182,"o":"m 182 -237 l 50 -237 l 50 878 l 182 878 l 182 -237 z "},"}":{"ha":408,"x_min":13,"x_max":393,"o":"m 49 860 q 65 860 58 860 q 78 861 72 861 q 235 812 186 861 q 285 657 285 763 q 283 624 285 646 q 281 578 282 603 q 278 533 279 554 q 276 501 276 511 q 303 399 276 429 q 393 368 331 368 l 393 258 q 303 228 331 258 q 276 122 276 197 q 278 92 276 113 q 281 47 279 71 q 283 2 282 24 q 285 -29 285 -19 q 237 -183 285 -133 q 85 -233 189 -233 l 49 -233 q 32 -233 39 -233 q 18 -232 25 -232 l 13 -232 l 13 -128 l 47 -128 q 117 -112 97 -128 q 136 -51 136 -96 l 136 183 q 174 269 136 235 q 269 311 211 304 l 269 314 q 174 356 211 319 q 136 443 136 393 l 136 675 q 117 738 136 719 q 46 756 99 756 l 13 756 l 13 860 l 49 860 z "},"¡":{"ha":251,"x_min":35,"x_max":224,"o":"m 215 310 l 42 310 l 42 478 l 215 478 l 215 310 m 174 242 q 224 -281 224 -67 q 219 -376 224 -333 l 38 -376 q 35 -333 36 -357 q 35 -285 35 -310 q 47 -44 35 -175 q 86 242 60 88 l 174 242 z "},"¨":{"ha":690,"x_min":251,"x_max":579,"o":"m 579 758 q 560 720 579 735 q 517 706 540 706 q 473 720 492 706 q 454 758 454 735 q 473 797 454 782 q 517 811 492 811 q 560 797 540 811 q 579 758 579 782 m 376 758 q 358 720 376 735 q 315 706 339 706 q 271 720 290 706 q 251 758 251 735 q 271 797 251 782 q 315 811 290 811 q 358 797 339 811 q 376 758 376 782 z "},"©":{"ha":857,"x_min":19,"x_max":838,"o":"m 428 867 q 588 832 513 867 q 718 738 663 797 q 806 598 774 678 q 838 428 838 518 q 806 258 838 338 q 718 118 774 178 q 588 24 663 58 q 428 -11 513 -11 q 269 24 343 -11 q 139 118 194 58 q 51 258 83 178 q 19 428 19 338 q 51 598 19 518 q 139 738 83 678 q 269 832 194 797 q 428 867 343 867 m 431 818 q 289 787 356 818 q 174 702 222 756 q 97 578 125 649 q 68 426 68 507 q 97 275 68 346 q 174 151 125 204 q 289 68 222 99 q 431 38 356 38 q 572 68 506 38 q 688 151 638 99 q 766 275 738 204 q 794 426 794 346 q 766 578 794 507 q 688 702 738 649 q 572 787 638 756 q 431 818 506 818 m 511 481 q 486 524 506 508 q 442 540 467 540 q 382 510 404 540 q 360 433 360 479 q 438 313 360 313 q 485 330 465 313 q 508 376 506 347 l 614 376 q 556 270 606 310 q 433 231 506 231 q 299 282 346 231 q 253 421 253 333 q 299 570 253 517 q 438 624 346 624 q 562 585 514 624 q 615 481 610 547 l 511 481 z "},"«":{"ha":444,"x_min":49,"x_max":410,"o":"m 235 415 l 113 360 l 235 301 l 235 231 l 49 322 l 49 392 l 235 489 l 235 415 m 410 415 l 289 360 l 410 301 l 410 231 l 225 322 l 225 392 l 410 489 l 410 415 z "},"®":{"ha":575,"x_min":22,"x_max":560,"o":"m 517 613 q 499 686 517 650 q 451 751 482 722 q 379 797 421 779 q 288 815 338 815 q 198 797 238 815 q 130 751 158 779 q 87 686 101 722 q 72 613 72 650 q 87 538 72 575 q 130 472 101 501 q 198 425 158 443 q 288 407 238 407 q 375 423 333 407 q 448 467 417 439 q 498 532 479 494 q 517 613 517 569 m 560 613 q 539 517 560 563 q 481 438 518 472 q 395 382 444 403 q 288 361 346 361 q 181 382 229 361 q 97 438 132 403 q 42 517 61 472 q 22 613 22 563 q 42 709 22 664 q 97 789 61 754 q 181 844 132 824 q 288 864 229 864 q 396 844 346 864 q 483 791 446 825 q 540 711 519 757 q 560 613 560 665 m 258 689 l 258 628 l 304 628 q 332 657 332 628 q 304 689 332 689 l 258 689 m 303 744 q 364 722 342 744 q 386 657 386 699 q 376 612 386 629 q 342 579 365 594 l 390 472 l 333 472 l 288 571 l 258 571 l 258 472 l 206 472 l 206 744 l 303 744 z "},"´":{"ha":447,"x_min":239,"x_max":439,"o":"m 360 707 l 239 707 l 293 799 l 439 799 l 360 707 z "},"¸":{"ha":250,"x_min":28,"x_max":211,"o":"m 146 -251 l 28 -251 l 93 35 l 211 35 l 146 -251 z "},"»":{"ha":458,"x_min":63,"x_max":424,"o":"m 424 326 l 238 231 l 238 304 l 360 361 l 238 417 l 238 489 l 424 397 l 424 326 m 247 326 l 63 231 l 63 304 l 183 361 l 63 417 l 63 489 l 247 397 l 247 326 z "},"¿":{"ha":657,"x_min":36,"x_max":625,"o":"m 415 326 l 240 326 l 240 494 l 415 494 l 415 326 m 410 246 q 360 68 410 132 q 265 -17 356 60 q 215 -121 215 -61 q 250 -201 215 -169 q 332 -233 285 -233 q 416 -197 381 -233 q 458 -93 451 -160 l 625 -93 q 604 -206 625 -156 q 546 -294 583 -257 q 457 -350 508 -331 q 343 -369 406 -369 q 116 -300 196 -369 q 36 -104 36 -231 q 79 14 36 -39 q 107 40 85 22 q 156 81 129 58 q 206 125 182 103 q 238 164 229 147 q 251 246 251 190 l 410 246 z "},"À":{"ha":821,"x_min":4,"x_max":817,"o":"m 408 663 l 300 322 l 517 322 l 410 663 l 408 663 m 817 0 l 622 0 l 568 176 l 253 176 l 193 0 l 4 0 l 308 854 l 515 854 l 817 0 m 510 928 l 388 928 l 310 1019 l 454 1019 l 510 928 z "},"Á":{"ha":821,"x_min":4,"x_max":817,"o":"m 408 663 l 300 322 l 517 322 l 410 663 l 408 663 m 817 0 l 622 0 l 568 176 l 253 176 l 193 0 l 4 0 l 308 854 l 515 854 l 817 0 m 431 928 l 310 928 l 364 1019 l 510 1019 l 431 928 z "},"Â":{"ha":821,"x_min":4,"x_max":817,"o":"m 408 663 l 300 322 l 517 322 l 410 663 l 408 663 m 817 0 l 622 0 l 568 176 l 253 176 l 193 0 l 4 0 l 308 854 l 515 854 l 817 0 m 575 926 l 475 926 l 410 1017 l 349 926 l 249 926 l 335 1036 l 489 1036 l 575 926 z "},"Ã":{"ha":821,"x_min":4,"x_max":817,"o":"m 408 663 l 300 322 l 517 322 l 410 663 l 408 663 m 817 0 l 622 0 l 568 176 l 253 176 l 193 0 l 4 0 l 308 854 l 515 854 l 817 0 m 592 1051 q 562 967 592 1000 q 483 933 532 933 q 438 943 467 933 q 382 965 410 953 q 331 988 354 978 q 300 997 307 997 q 268 986 278 997 q 247 935 258 975 l 229 935 q 336 1051 231 1051 q 381 1042 354 1051 q 436 1020 408 1032 q 488 999 464 1008 q 521 989 511 989 q 574 1051 558 989 l 592 1051 z "},"Ä":{"ha":821,"x_min":4,"x_max":817,"o":"m 408 663 l 300 322 l 517 322 l 410 663 l 408 663 m 817 0 l 622 0 l 568 176 l 253 176 l 193 0 l 4 0 l 308 854 l 515 854 l 817 0 m 576 979 q 557 941 576 956 q 514 926 538 926 q 470 941 489 926 q 451 979 451 956 q 470 1017 451 1003 q 514 1032 489 1032 q 557 1017 538 1032 q 576 979 576 1003 m 374 979 q 355 941 374 956 q 313 926 336 926 q 268 941 288 926 q 249 979 249 956 q 268 1017 249 1003 q 313 1032 288 1032 q 355 1017 336 1032 q 374 979 374 1003 z "},"Å":{"ha":819,"x_min":4,"x_max":815,"o":"m 815 0 l 621 0 l 567 176 l 251 176 l 192 0 l 4 0 l 307 854 l 333 854 q 293 936 293 883 q 326 1009 293 981 q 404 1038 358 1038 q 482 1009 449 1038 q 515 936 515 981 q 475 854 515 883 l 514 854 l 815 0 m 407 663 l 299 322 l 515 322 l 408 663 l 407 663 m 475 936 q 453 983 475 964 q 404 1001 432 1001 q 354 983 375 1001 q 333 936 333 964 q 354 889 333 907 q 404 871 375 871 q 453 889 432 871 q 475 936 475 907 z "},"Æ":{"ha":1133,"x_min":4,"x_max":1133,"o":"m 1113 704 l 658 704 l 658 522 l 1076 522 l 1076 372 l 658 372 l 658 151 l 1133 151 l 1133 0 l 481 0 l 481 176 l 253 176 l 193 0 l 4 0 l 308 854 l 1113 854 l 1113 704 m 425 704 l 300 322 l 481 322 l 481 704 l 425 704 z "},"Ç":{"ha":782,"x_min":19,"x_max":782,"o":"m 603 574 q 533 687 585 646 q 418 728 482 728 q 326 706 367 728 q 258 643 286 683 q 215 548 229 603 q 200 426 200 493 q 215 306 200 361 q 256 212 229 251 q 322 149 283 172 q 408 126 360 126 q 536 169 488 126 q 603 293 585 213 l 782 293 q 676 76 757 161 q 468 -25 594 -10 l 417 -251 l 299 -251 l 350 -24 q 217 19 278 -14 q 113 106 157 51 q 44 239 69 161 q 19 417 19 317 q 47 611 19 525 q 126 758 75 697 q 251 850 178 818 q 417 882 325 882 q 562 858 497 882 q 673 792 626 833 q 747 694 719 750 q 782 574 775 638 l 603 574 z "},"È":{"ha":678,"x_min":29,"x_max":678,"o":"m 657 704 l 203 704 l 203 522 l 621 522 l 621 372 l 203 372 l 203 151 l 678 151 l 678 0 l 29 0 l 29 854 l 657 854 l 657 704 m 439 928 l 317 928 l 239 1019 l 383 1019 l 439 928 z "},"É":{"ha":678,"x_min":29,"x_max":678,"o":"m 657 704 l 203 704 l 203 522 l 621 522 l 621 372 l 203 372 l 203 151 l 678 151 l 678 0 l 29 0 l 29 854 l 657 854 l 657 704 m 360 928 l 239 928 l 293 1019 l 439 1019 l 360 928 z "},"Ê":{"ha":678,"x_min":29,"x_max":678,"o":"m 657 704 l 203 704 l 203 522 l 621 522 l 621 372 l 203 372 l 203 151 l 678 151 l 678 0 l 29 0 l 29 854 l 657 854 l 657 704 m 504 926 l 404 926 l 339 1017 l 278 926 l 178 926 l 264 1036 l 418 1036 l 504 926 z "},"Ë":{"ha":678,"x_min":29,"x_max":678,"o":"m 657 704 l 203 704 l 203 522 l 621 522 l 621 372 l 203 372 l 203 151 l 678 151 l 678 0 l 29 0 l 29 854 l 657 854 l 657 704 m 504 979 q 485 941 504 956 q 442 926 465 926 q 398 941 417 926 q 379 979 379 956 q 398 1017 379 1003 q 442 1032 417 1032 q 485 1017 465 1032 q 504 979 504 1003 m 301 979 q 283 941 301 956 q 240 926 264 926 q 196 941 215 926 q 176 979 176 956 q 196 1017 176 1003 q 240 1032 215 1032 q 283 1017 264 1032 q 301 979 301 1003 z "},"Ì":{"ha":236,"x_min":19,"x_max":219,"o":"m 208 0 l 29 0 l 29 854 l 208 854 l 208 0 m 219 928 l 97 928 l 19 1019 l 164 1019 l 219 928 z "},"Í":{"ha":236,"x_min":19,"x_max":219,"o":"m 208 0 l 29 0 l 29 854 l 208 854 l 208 0 m 140 928 l 19 928 l 74 1019 l 219 1019 l 140 928 z "},"Î":{"ha":236,"x_min":-43,"x_max":283,"o":"m 208 0 l 29 0 l 29 854 l 208 854 l 208 0 m 283 926 l 183 926 l 118 1017 l 57 926 l -43 926 l 43 1036 l 197 1036 l 283 926 z "},"Ï":{"ha":236,"x_min":-44,"x_max":283,"o":"m 208 0 l 29 0 l 29 854 l 208 854 l 208 0 m 283 979 q 264 941 283 956 q 221 926 244 926 q 177 941 196 926 q 158 979 158 956 q 177 1017 158 1003 q 221 1032 196 1032 q 264 1017 244 1032 q 283 979 283 1003 m 81 979 q 62 941 81 956 q 19 926 43 926 q -25 941 -6 926 q -44 979 -44 956 q -25 1017 -44 1003 q 19 1032 -6 1032 q 62 1017 43 1032 q 81 979 81 1003 z "},"Ñ":{"ha":754,"x_min":29,"x_max":725,"o":"m 725 0 l 547 0 l 196 574 l 196 0 l 29 0 l 29 854 l 218 854 l 558 296 l 558 854 l 725 854 l 725 0 m 560 1051 q 530 967 560 1000 q 451 933 500 933 q 406 943 435 933 q 350 965 378 953 q 299 988 322 978 q 268 997 275 997 q 236 986 246 997 q 215 935 226 975 l 197 935 q 304 1051 199 1051 q 349 1042 322 1051 q 404 1020 376 1032 q 456 999 432 1008 q 489 989 479 989 q 542 1051 526 989 l 560 1051 z "},"Ò":{"ha":857,"x_min":19,"x_max":838,"o":"m 196 415 q 256 194 196 264 q 429 124 317 124 q 520 141 478 124 q 594 194 563 158 q 643 285 625 229 q 661 415 661 340 q 601 645 661 567 q 429 724 542 724 q 256 645 317 724 q 196 415 196 567 m 429 882 q 733 760 628 882 q 838 415 838 638 q 734 81 838 192 q 429 -29 631 -29 q 124 85 228 -29 q 19 419 19 199 q 47 614 19 528 q 126 759 74 700 q 254 850 178 818 q 429 882 331 882 m 528 928 l 406 928 l 328 1019 l 472 1019 l 528 928 z "},"Ó":{"ha":857,"x_min":19,"x_max":838,"o":"m 196 415 q 256 194 196 264 q 429 124 317 124 q 520 141 478 124 q 594 194 563 158 q 643 285 625 229 q 661 415 661 340 q 601 645 661 567 q 429 724 542 724 q 256 645 317 724 q 196 415 196 567 m 429 882 q 733 760 628 882 q 838 415 838 638 q 734 81 838 192 q 429 -29 631 -29 q 124 85 228 -29 q 19 419 19 199 q 47 614 19 528 q 126 759 74 700 q 254 850 178 818 q 429 882 331 882 m 449 928 l 328 928 l 382 1019 l 528 1019 l 449 928 z "},"Ô":{"ha":857,"x_min":19,"x_max":838,"o":"m 196 415 q 256 194 196 264 q 429 124 317 124 q 520 141 478 124 q 594 194 563 158 q 643 285 625 229 q 661 415 661 340 q 601 645 661 567 q 429 724 542 724 q 256 645 317 724 q 196 415 196 567 m 429 882 q 733 760 628 882 q 838 415 838 638 q 734 81 838 192 q 429 -29 631 -29 q 124 85 228 -29 q 19 419 19 199 q 47 614 19 528 q 126 759 74 700 q 254 850 178 818 q 429 882 331 882 m 592 926 l 492 926 l 426 1017 l 365 926 l 265 926 l 351 1036 l 506 1036 l 592 926 z "},"Õ":{"ha":857,"x_min":19,"x_max":838,"o":"m 196 415 q 256 194 196 264 q 429 124 317 124 q 520 141 478 124 q 594 194 563 158 q 643 285 625 229 q 661 415 661 340 q 601 645 661 567 q 429 724 542 724 q 256 645 317 724 q 196 415 196 567 m 429 882 q 733 760 628 882 q 838 415 838 638 q 734 81 838 192 q 429 -29 631 -29 q 124 85 228 -29 q 19 419 19 199 q 47 614 19 528 q 126 759 74 700 q 254 850 178 818 q 429 882 331 882 m 610 1051 q 580 967 610 1000 q 501 933 550 933 q 456 943 485 933 q 400 965 428 953 q 349 988 372 978 q 318 997 325 997 q 286 986 296 997 q 265 935 276 975 l 247 935 q 354 1051 249 1051 q 399 1042 372 1051 q 454 1020 426 1032 q 506 999 482 1008 q 539 989 529 989 q 592 1051 576 989 l 610 1051 z "},"Ö":{"ha":857,"x_min":19,"x_max":838,"o":"m 196 415 q 256 194 196 264 q 429 124 317 124 q 520 141 478 124 q 594 194 563 158 q 643 285 625 229 q 661 415 661 340 q 601 645 661 567 q 429 724 542 724 q 256 645 317 724 q 196 415 196 567 m 429 882 q 733 760 628 882 q 838 415 838 638 q 734 81 838 192 q 429 -29 631 -29 q 124 85 228 -29 q 19 419 19 199 q 47 614 19 528 q 126 759 74 700 q 254 850 178 818 q 429 882 331 882 m 592 979 q 572 941 592 956 q 529 926 553 926 q 485 941 504 926 q 467 979 467 956 q 485 1017 467 1003 q 529 1032 504 1032 q 572 1017 553 1032 q 592 979 592 1003 m 389 979 q 370 941 389 956 q 328 926 351 926 q 283 941 303 926 q 264 979 264 956 q 283 1017 264 1003 q 328 1032 303 1032 q 370 1017 351 1032 q 389 979 389 1003 z "},"Ø":{"ha":857,"x_min":19,"x_max":838,"o":"m 672 813 q 795 654 753 754 q 838 415 838 554 q 734 81 838 192 q 429 -29 631 -29 q 258 -1 339 -29 l 233 -53 l 143 -18 l 174 43 q 59 192 99 99 q 19 419 19 285 q 47 614 19 528 q 126 759 74 700 q 254 850 178 818 q 429 882 331 882 q 583 858 508 882 l 614 919 l 708 885 l 672 813 m 661 415 q 592 656 661 578 l 331 140 q 429 124 374 124 q 520 141 478 124 q 594 194 563 158 q 643 285 625 229 q 661 415 661 340 m 196 415 q 253 200 196 274 l 510 711 q 429 724 472 724 q 256 645 317 724 q 196 415 196 567 z "},"Ù":{"ha":747,"x_min":29,"x_max":718,"o":"m 718 293 q 626 58 718 138 q 367 -21 535 -21 q 120 54 211 -21 q 29 283 29 129 l 29 854 l 211 854 l 211 300 q 251 174 211 221 q 364 128 292 128 q 535 293 535 128 l 535 854 l 718 854 l 718 293 m 474 928 l 351 928 l 274 1019 l 418 1019 l 474 928 z "},"Ú":{"ha":747,"x_min":29,"x_max":718,"o":"m 718 293 q 626 58 718 138 q 367 -21 535 -21 q 120 54 211 -21 q 29 283 29 129 l 29 854 l 211 854 l 211 300 q 251 174 211 221 q 364 128 292 128 q 535 293 535 128 l 535 854 l 718 854 l 718 293 m 394 928 l 274 928 l 328 1019 l 474 1019 l 394 928 z "},"Û":{"ha":747,"x_min":29,"x_max":718,"o":"m 718 293 q 626 58 718 138 q 367 -21 535 -21 q 120 54 211 -21 q 29 283 29 129 l 29 854 l 211 854 l 211 300 q 251 174 211 221 q 364 128 292 128 q 535 293 535 128 l 535 854 l 718 854 l 718 293 m 539 926 l 439 926 l 374 1017 l 313 926 l 213 926 l 299 1036 l 453 1036 l 539 926 z "},"Ü":{"ha":747,"x_min":29,"x_max":718,"o":"m 718 293 q 626 58 718 138 q 367 -21 535 -21 q 120 54 211 -21 q 29 283 29 129 l 29 854 l 211 854 l 211 300 q 251 174 211 221 q 364 128 292 128 q 535 293 535 128 l 535 854 l 718 854 l 718 293 m 539 979 q 519 941 539 956 q 476 926 500 926 q 433 941 451 926 q 414 979 414 956 q 433 1017 414 1003 q 476 1032 451 1032 q 519 1017 500 1032 q 539 979 539 1003 m 336 979 q 317 941 336 956 q 275 926 299 926 q 231 941 250 926 q 211 979 211 956 q 231 1017 211 1003 q 275 1032 250 1032 q 317 1017 299 1032 q 336 979 336 1003 z "},"Ý":{"ha":768,"x_min":4,"x_max":764,"o":"m 478 321 l 478 0 l 300 0 l 300 322 l 4 854 l 213 854 l 392 507 l 558 854 l 764 854 l 478 321 m 404 928 l 283 928 l 338 1019 l 483 1019 l 404 928 z "},"ß":{"ha":650,"x_min":33,"x_max":639,"o":"m 199 0 l 33 0 l 33 640 q 55 735 33 692 q 114 808 76 778 q 203 856 151 839 q 317 874 256 874 q 521 809 451 874 q 590 636 590 744 q 504 490 590 535 q 613 398 586 454 q 639 274 639 342 q 562 62 639 139 q 354 -15 485 -15 q 318 -14 336 -15 q 281 -10 300 -12 l 281 121 l 317 121 q 432 162 389 121 q 475 265 475 203 q 426 376 475 343 q 290 414 376 408 l 290 529 q 355 536 329 531 q 396 553 381 542 q 417 585 411 565 q 422 632 422 604 q 389 710 422 681 q 310 739 356 739 q 231 710 264 739 q 199 632 199 682 l 199 0 z "},"à":{"ha":618,"x_min":17,"x_max":585,"o":"m 418 310 q 331 276 393 289 q 214 237 244 260 q 183 174 183 214 q 258 103 183 103 q 320 112 290 103 q 372 139 350 121 q 408 185 394 157 q 421 249 421 213 q 420 279 421 260 q 418 310 419 299 m 315 650 q 517 586 450 650 q 585 400 585 522 l 585 0 l 429 0 q 424 24 426 11 q 419 51 421 36 q 340 3 389 19 q 228 -12 292 -12 q 74 35 132 -12 q 17 165 17 82 q 38 269 17 231 q 99 331 60 308 q 191 364 138 353 q 307 383 244 375 q 385 406 357 390 q 414 449 414 421 q 381 503 414 485 q 307 521 347 521 q 233 495 263 521 q 197 426 203 469 l 38 426 q 110 591 46 532 q 315 650 174 650 m 408 707 l 286 707 l 208 799 l 353 799 l 408 707 z "},"á":{"ha":618,"x_min":17,"x_max":585,"o":"m 418 310 q 331 276 393 289 q 214 237 244 260 q 183 174 183 214 q 258 103 183 103 q 320 112 290 103 q 372 139 350 121 q 408 185 394 157 q 421 249 421 213 q 420 279 421 260 q 418 310 419 299 m 315 650 q 517 586 450 650 q 585 400 585 522 l 585 0 l 429 0 q 424 24 426 11 q 419 51 421 36 q 340 3 389 19 q 228 -12 292 -12 q 74 35 132 -12 q 17 165 17 82 q 38 269 17 231 q 99 331 60 308 q 191 364 138 353 q 307 383 244 375 q 385 406 357 390 q 414 449 414 421 q 381 503 414 485 q 307 521 347 521 q 233 495 263 521 q 197 426 203 469 l 38 426 q 110 591 46 532 q 315 650 174 650 m 332 707 l 211 707 l 265 799 l 411 799 l 332 707 z "},"â":{"ha":618,"x_min":17,"x_max":585,"o":"m 418 310 q 331 276 393 289 q 214 237 244 260 q 183 174 183 214 q 258 103 183 103 q 320 112 290 103 q 372 139 350 121 q 408 185 394 157 q 421 249 421 213 q 420 279 421 260 q 418 310 419 299 m 315 650 q 517 586 450 650 q 585 400 585 522 l 585 0 l 429 0 q 424 24 426 11 q 419 51 421 36 q 340 3 389 19 q 228 -12 292 -12 q 74 35 132 -12 q 17 165 17 82 q 38 269 17 231 q 99 331 60 308 q 191 364 138 353 q 307 383 244 375 q 385 406 357 390 q 414 449 414 421 q 381 503 414 485 q 307 521 347 521 q 233 495 263 521 q 197 426 203 469 l 38 426 q 110 591 46 532 q 315 650 174 650 m 474 706 l 374 706 l 308 796 l 247 706 l 147 706 l 233 815 l 388 815 l 474 706 z "},"ã":{"ha":618,"x_min":17,"x_max":585,"o":"m 418 310 q 331 276 393 289 q 214 237 244 260 q 183 174 183 214 q 258 103 183 103 q 320 112 290 103 q 372 139 350 121 q 408 185 394 157 q 421 249 421 213 q 420 279 421 260 q 418 310 419 299 m 315 650 q 517 586 450 650 q 585 400 585 522 l 585 0 l 429 0 q 424 24 426 11 q 419 51 421 36 q 340 3 389 19 q 228 -12 292 -12 q 74 35 132 -12 q 17 165 17 82 q 38 269 17 231 q 99 331 60 308 q 191 364 138 353 q 307 383 244 375 q 385 406 357 390 q 414 449 414 421 q 381 503 414 485 q 307 521 347 521 q 233 495 263 521 q 197 426 203 469 l 38 426 q 110 591 46 532 q 315 650 174 650 m 492 831 q 462 746 492 779 q 383 713 432 713 q 338 722 367 713 q 282 744 310 732 q 231 767 254 757 q 200 776 207 776 q 168 765 178 776 q 147 714 158 754 l 129 714 q 236 831 131 831 q 281 821 254 831 q 336 799 308 811 q 388 778 364 788 q 421 768 411 768 q 474 831 458 768 l 492 831 z "},"ä":{"ha":618,"x_min":17,"x_max":585,"o":"m 418 310 q 331 276 393 289 q 214 237 244 260 q 183 174 183 214 q 258 103 183 103 q 320 112 290 103 q 372 139 350 121 q 408 185 394 157 q 421 249 421 213 q 420 279 421 260 q 418 310 419 299 m 315 650 q 517 586 450 650 q 585 400 585 522 l 585 0 l 429 0 q 424 24 426 11 q 419 51 421 36 q 340 3 389 19 q 228 -12 292 -12 q 74 35 132 -12 q 17 165 17 82 q 38 269 17 231 q 99 331 60 308 q 191 364 138 353 q 307 383 244 375 q 385 406 357 390 q 414 449 414 421 q 381 503 414 485 q 307 521 347 521 q 233 495 263 521 q 197 426 203 469 l 38 426 q 110 591 46 532 q 315 650 174 650 m 475 758 q 456 720 475 735 q 413 706 436 706 q 369 720 388 706 q 350 758 350 735 q 369 797 350 782 q 413 811 388 811 q 456 797 436 811 q 475 758 475 782 m 272 758 q 253 720 272 735 q 211 706 235 706 q 167 720 186 706 q 147 758 147 735 q 167 797 147 782 q 211 811 186 811 q 253 797 235 811 q 272 758 272 782 z "},"å":{"ha":618,"x_min":17,"x_max":585,"o":"m 585 0 l 429 0 q 414 51 421 15 q 228 -12 354 -12 q 74 35 132 -12 q 17 165 17 82 q 28 253 17 217 q 72 315 40 290 q 160 356 104 340 q 307 383 217 372 q 407 439 407 396 q 377 497 407 475 q 307 519 347 519 q 233 494 263 519 q 197 426 203 469 l 38 426 q 97 579 44 522 q 264 647 150 636 q 214 683 233 658 q 194 743 194 708 q 228 817 194 788 q 307 846 261 846 q 384 817 351 846 q 417 743 417 788 q 399 684 417 708 q 350 649 381 660 q 585 392 585 631 l 585 0 m 407 310 q 373 290 394 297 q 319 276 351 283 q 249 259 275 268 q 208 238 222 250 q 188 211 193 226 q 183 174 183 196 q 258 103 183 103 q 376 149 342 103 q 410 289 410 196 q 407 310 410 304 m 376 743 q 356 790 376 771 q 307 808 335 808 q 256 790 276 808 q 235 743 235 771 q 256 697 235 715 q 307 678 276 678 q 356 697 335 678 q 376 743 376 715 z "},"æ":{"ha":1036,"x_min":17,"x_max":1018,"o":"m 585 272 q 632 152 596 189 q 724 115 668 115 q 796 135 764 115 q 838 186 828 154 l 1010 186 q 907 36 981 89 q 732 -17 833 -17 q 666 -9 700 -17 q 601 15 632 -1 q 544 57 569 32 q 504 118 518 82 q 408 19 483 56 q 228 -17 333 -17 q 74 33 132 -17 q 17 165 17 82 q 28 253 17 217 q 73 315 40 290 q 162 356 106 340 q 307 383 218 372 q 407 439 407 396 q 377 497 407 475 q 307 519 347 519 q 233 494 263 519 q 197 426 203 469 l 38 426 q 110 590 46 532 q 315 649 174 649 q 434 631 382 649 q 515 558 486 614 q 597 626 539 601 q 721 650 656 650 q 1018 272 1018 650 l 585 272 m 258 99 q 368 136 325 99 q 411 249 411 174 l 411 310 q 374 290 397 297 q 319 276 351 283 q 249 256 275 268 q 208 231 222 244 q 188 203 193 218 q 183 174 183 189 q 258 99 183 99 m 860 378 q 819 481 853 444 q 724 517 786 517 q 633 478 672 517 q 588 378 594 440 l 860 378 z "},"ç":{"ha":613,"x_min":22,"x_max":604,"o":"m 436 407 q 397 483 429 456 q 317 511 364 511 q 267 502 290 511 q 226 472 243 493 q 198 415 208 450 q 188 328 188 379 q 225 174 188 224 q 311 124 263 124 q 394 151 360 124 q 435 229 429 178 l 603 229 q 533 74 592 138 q 388 -8 475 11 l 332 -251 l 214 -251 l 268 -14 q 89 84 156 0 q 22 324 22 168 q 44 470 22 408 q 103 572 65 532 q 197 631 142 611 q 318 650 251 650 q 520 585 444 650 q 604 407 596 519 l 436 407 z "},"è":{"ha":640,"x_min":19,"x_max":622,"o":"m 450 378 q 409 483 447 449 q 321 517 371 517 q 233 481 269 517 q 192 378 197 444 l 450 378 m 186 272 q 228 158 190 201 q 328 115 265 115 q 400 135 368 115 q 442 186 432 154 l 614 186 q 511 36 585 89 q 336 -17 438 -17 q 19 328 19 -17 q 99 563 19 475 q 325 650 178 650 q 622 272 622 650 l 186 272 m 419 707 l 297 707 l 219 799 l 364 799 l 419 707 z "},"é":{"ha":640,"x_min":19,"x_max":622,"o":"m 450 378 q 409 483 447 449 q 321 517 371 517 q 233 481 269 517 q 192 378 197 444 l 450 378 m 186 272 q 228 158 190 201 q 328 115 265 115 q 400 135 368 115 q 442 186 432 154 l 614 186 q 511 36 585 89 q 336 -17 438 -17 q 19 328 19 -17 q 99 563 19 475 q 325 650 178 650 q 622 272 622 650 l 186 272 m 343 707 l 222 707 l 276 799 l 422 799 l 343 707 z "},"ê":{"ha":640,"x_min":19,"x_max":622,"o":"m 450 378 q 409 483 447 449 q 321 517 371 517 q 233 481 269 517 q 192 378 197 444 l 450 378 m 186 272 q 228 158 190 201 q 328 115 265 115 q 400 135 368 115 q 442 186 432 154 l 614 186 q 511 36 585 89 q 336 -17 438 -17 q 19 328 19 -17 q 99 563 19 475 q 325 650 178 650 q 622 272 622 650 l 186 272 m 485 706 l 385 706 l 319 796 l 258 706 l 158 706 l 244 815 l 399 815 l 485 706 z "},"ë":{"ha":640,"x_min":19,"x_max":622,"o":"m 450 378 q 409 483 447 449 q 321 517 371 517 q 233 481 269 517 q 192 378 197 444 l 450 378 m 186 272 q 228 158 190 201 q 328 115 265 115 q 400 135 368 115 q 442 186 432 154 l 614 186 q 511 36 585 89 q 336 -17 438 -17 q 19 328 19 -17 q 99 563 19 475 q 325 650 178 650 q 622 272 622 650 l 186 272 m 486 758 q 467 720 486 735 q 424 706 447 706 q 380 720 399 706 q 361 758 361 735 q 380 797 361 782 q 424 811 399 811 q 467 797 447 811 q 486 758 486 782 m 283 758 q 265 720 283 735 q 222 706 246 706 q 178 720 197 706 q 158 758 158 735 q 178 797 158 782 q 222 811 197 811 q 265 797 246 811 q 283 758 283 782 z "},"ì":{"ha":225,"x_min":14,"x_max":214,"o":"m 196 0 l 29 0 l 29 633 l 196 633 l 196 0 m 214 707 l 92 707 l 14 799 l 158 799 l 214 707 z "},"í":{"ha":225,"x_min":29,"x_max":196,"o":"m 196 0 l 29 0 l 29 633 l 196 633 l 196 0 z "},"î":{"ha":225,"x_min":-49,"x_max":278,"o":"m 196 0 l 29 0 l 29 633 l 196 633 l 196 0 m 278 706 l 178 706 l 113 796 l 51 706 l -49 706 l 38 815 l 192 815 l 278 706 z "},"ï":{"ha":225,"x_min":-50,"x_max":278,"o":"m 196 0 l 29 0 l 29 633 l 196 633 l 196 0 m 278 758 q 258 720 278 735 q 215 706 239 706 q 172 720 190 706 q 153 758 153 735 q 172 797 153 782 q 215 811 190 811 q 258 797 239 811 q 278 758 278 782 m 75 758 q 56 720 75 735 q 14 706 38 706 q -31 720 -11 706 q -50 758 -50 735 q -31 797 -50 782 q 14 811 -11 811 q 56 797 38 811 q 75 758 75 782 z "},"ñ":{"ha":640,"x_min":33,"x_max":607,"o":"m 193 540 q 272 622 222 593 q 397 650 321 650 q 481 636 443 650 q 547 596 519 622 q 591 530 575 569 q 607 439 607 490 l 607 0 l 439 0 l 439 383 q 415 483 439 457 q 331 508 390 508 q 200 363 200 508 l 200 0 l 33 0 l 33 633 l 193 633 l 193 540 m 503 831 q 473 746 503 779 q 394 713 443 713 q 349 722 378 713 q 293 744 321 732 q 242 767 265 757 q 211 776 218 776 q 179 765 189 776 q 158 714 169 754 l 140 714 q 247 831 142 831 q 292 821 265 831 q 347 799 319 811 q 399 778 375 788 q 432 768 422 768 q 485 831 469 768 l 503 831 z "},"ò":{"ha":686,"x_min":19,"x_max":667,"o":"m 344 508 q 192 317 192 508 q 344 124 192 124 q 497 317 497 124 q 344 508 497 508 m 344 650 q 479 626 419 650 q 581 559 539 603 q 644 453 622 515 q 667 317 667 392 q 644 180 667 242 q 579 74 621 118 q 478 7 538 31 q 344 -17 418 -17 q 208 8 268 -17 q 106 76 147 32 q 42 181 64 119 q 19 317 19 243 q 42 453 19 392 q 107 558 65 514 q 209 626 149 601 q 344 650 269 650 m 443 707 l 321 707 l 243 799 l 388 799 l 443 707 z "},"ó":{"ha":686,"x_min":19,"x_max":667,"o":"m 344 508 q 192 317 192 508 q 344 124 192 124 q 497 317 497 124 q 344 508 497 508 m 344 650 q 479 626 419 650 q 581 559 539 603 q 644 453 622 515 q 667 317 667 392 q 644 180 667 242 q 579 74 621 118 q 478 7 538 31 q 344 -17 418 -17 q 208 8 268 -17 q 106 76 147 32 q 42 181 64 119 q 19 317 19 243 q 42 453 19 392 q 107 558 65 514 q 209 626 149 601 q 344 650 269 650 m 364 707 l 243 707 l 297 799 l 443 799 l 364 707 z "},"ô":{"ha":686,"x_min":19,"x_max":667,"o":"m 344 508 q 192 317 192 508 q 344 124 192 124 q 497 317 497 124 q 344 508 497 508 m 344 650 q 479 626 419 650 q 581 559 539 603 q 644 453 622 515 q 667 317 667 392 q 644 180 667 242 q 579 74 621 118 q 478 7 538 31 q 344 -17 418 -17 q 208 8 268 -17 q 106 76 147 32 q 42 181 64 119 q 19 317 19 243 q 42 453 19 392 q 107 558 65 514 q 209 626 149 601 q 344 650 269 650 m 508 706 l 408 706 l 343 796 l 282 706 l 182 706 l 268 815 l 422 815 l 508 706 z "},"õ":{"ha":686,"x_min":19,"x_max":667,"o":"m 344 508 q 192 317 192 508 q 344 124 192 124 q 497 317 497 124 q 344 508 497 508 m 344 650 q 479 626 419 650 q 581 559 539 603 q 644 453 622 515 q 667 317 667 392 q 644 180 667 242 q 579 74 621 118 q 478 7 538 31 q 344 -17 418 -17 q 208 8 268 -17 q 106 76 147 32 q 42 181 64 119 q 19 317 19 243 q 42 453 19 392 q 107 558 65 514 q 209 626 149 601 q 344 650 269 650 m 526 831 q 497 746 526 779 q 418 713 467 713 q 373 722 401 713 q 317 744 344 732 q 265 767 289 757 q 235 776 242 776 q 203 765 213 776 q 182 714 193 754 l 164 714 q 271 831 165 831 q 316 821 289 831 q 371 799 343 811 q 422 778 399 788 q 456 768 446 768 q 508 831 493 768 l 526 831 z "},"ö":{"ha":686,"x_min":19,"x_max":667,"o":"m 344 508 q 192 317 192 508 q 344 124 192 124 q 497 317 497 124 q 344 508 497 508 m 344 650 q 479 626 419 650 q 581 559 539 603 q 644 453 622 515 q 667 317 667 392 q 644 180 667 242 q 579 74 621 118 q 478 7 538 31 q 344 -17 418 -17 q 208 8 268 -17 q 106 76 147 32 q 42 181 64 119 q 19 317 19 243 q 42 453 19 392 q 107 558 65 514 q 209 626 149 601 q 344 650 269 650 m 508 758 q 489 720 508 735 q 446 706 469 706 q 402 720 421 706 q 383 758 383 735 q 402 797 383 782 q 446 811 421 811 q 489 797 469 811 q 508 758 508 782 m 306 758 q 287 720 306 735 q 244 706 268 706 q 200 720 219 706 q 181 758 181 735 q 200 797 181 782 q 244 811 219 811 q 287 797 268 811 q 306 758 306 782 z "},"ø":{"ha":686,"x_min":19,"x_max":667,"o":"m 524 604 q 629 490 592 563 q 667 317 667 417 q 644 180 667 242 q 579 74 621 118 q 478 7 538 31 q 344 -17 418 -17 q 244 -4 290 -17 l 213 -74 l 136 -40 l 167 26 q 58 142 96 68 q 19 317 19 217 q 42 453 19 392 q 107 558 65 514 q 209 626 149 601 q 344 650 269 650 q 443 638 397 650 l 472 701 l 553 668 l 524 604 m 497 317 q 458 461 497 414 l 304 126 q 317 124 308 124 q 395 133 361 124 q 452 164 429 142 q 486 223 475 186 q 497 317 497 260 m 344 508 q 192 317 192 508 q 231 169 192 217 l 383 504 q 344 508 364 508 z "},"ù":{"ha":636,"x_min":33,"x_max":603,"o":"m 603 0 l 444 0 l 444 89 q 249 -17 382 -17 q 162 0 201 -17 q 94 48 122 17 q 49 122 65 79 q 33 217 33 164 l 33 633 l 200 633 l 200 242 q 307 124 200 124 q 404 164 371 124 q 438 268 438 204 l 438 633 l 603 633 l 603 0 m 418 707 l 296 707 l 218 799 l 363 799 l 418 707 z "},"ú":{"ha":636,"x_min":33,"x_max":603,"o":"m 603 0 l 444 0 l 444 89 q 249 -17 382 -17 q 162 0 201 -17 q 94 48 122 17 q 49 122 65 79 q 33 217 33 164 l 33 633 l 200 633 l 200 242 q 307 124 200 124 q 404 164 371 124 q 438 268 438 204 l 438 633 l 603 633 l 603 0 m 340 707 l 219 707 l 274 799 l 419 799 l 340 707 z "},"û":{"ha":636,"x_min":33,"x_max":603,"o":"m 603 0 l 444 0 l 444 89 q 249 -17 382 -17 q 162 0 201 -17 q 94 48 122 17 q 49 122 65 79 q 33 217 33 164 l 33 633 l 200 633 l 200 242 q 307 124 200 124 q 404 164 371 124 q 438 268 438 204 l 438 633 l 603 633 l 603 0 m 483 706 l 383 706 l 318 796 l 257 706 l 157 706 l 243 815 l 397 815 l 483 706 z "},"ü":{"ha":636,"x_min":33,"x_max":603,"o":"m 603 0 l 444 0 l 444 89 q 249 -17 382 -17 q 162 0 201 -17 q 94 48 122 17 q 49 122 65 79 q 33 217 33 164 l 33 633 l 200 633 l 200 242 q 307 124 200 124 q 404 164 371 124 q 438 268 438 204 l 438 633 l 603 633 l 603 0 m 483 758 q 464 720 483 735 q 421 706 444 706 q 377 720 396 706 q 358 758 358 735 q 377 797 358 782 q 421 811 396 811 q 464 797 444 811 q 483 758 483 782 m 281 758 q 262 720 281 735 q 219 706 243 706 q 175 720 194 706 q 156 758 156 735 q 175 797 156 782 q 219 811 194 811 q 262 797 243 811 q 281 758 281 782 z "},"ý":{"ha":636,"x_min":33,"x_max":603,"o":"m 603 -17 q 581 -136 603 -83 q 519 -226 558 -189 q 426 -281 479 -262 q 313 -300 374 -300 q 103 -231 174 -300 q 33 -35 33 -161 l 189 -35 q 222 -124 189 -93 q 321 -156 254 -156 q 364 -146 343 -156 q 401 -119 385 -136 q 426 -76 417 -101 q 436 -19 436 -51 l 436 83 q 371 17 418 40 q 265 -7 324 -7 q 173 9 215 -7 q 99 56 131 25 q 51 128 68 86 q 33 222 33 169 l 33 633 l 200 633 l 200 247 q 307 129 200 129 q 401 163 365 129 q 436 247 436 196 l 436 633 l 603 633 l 603 -17 m 340 707 l 219 707 l 274 799 l 419 799 l 340 707 z "},"ÿ":{"ha":636,"x_min":33,"x_max":603,"o":"m 603 -17 q 581 -136 603 -83 q 519 -226 558 -189 q 426 -281 479 -262 q 313 -300 374 -300 q 103 -231 174 -300 q 33 -35 33 -161 l 189 -35 q 222 -124 189 -93 q 321 -156 254 -156 q 364 -146 343 -156 q 401 -119 385 -136 q 426 -76 417 -101 q 436 -19 436 -51 l 436 83 q 371 17 418 40 q 265 -7 324 -7 q 173 9 215 -7 q 99 56 131 25 q 51 128 68 86 q 33 222 33 169 l 33 633 l 200 633 l 200 247 q 307 129 200 129 q 401 163 365 129 q 436 247 436 196 l 436 633 l 603 633 l 603 -17 m 483 758 q 464 720 483 735 q 421 706 444 706 q 377 720 396 706 q 358 758 358 735 q 377 797 358 782 q 421 811 396 811 q 464 797 444 811 q 483 758 483 782 m 281 758 q 262 720 281 735 q 219 706 243 706 q 175 720 194 706 q 156 758 156 735 q 175 797 156 782 q 219 811 194 811 q 262 797 243 811 q 281 758 281 782 z "},"ı":{"ha":225,"x_min":29,"x_max":196,"o":"m 196 0 l 29 0 l 29 633 l 196 633 l 196 0 z "},"Œ":{"ha":1292,"x_min":19,"x_max":1313,"o":"m 1292 704 l 838 704 l 838 522 l 1256 522 l 1256 372 l 838 372 l 838 151 l 1313 151 l 1313 0 l 664 0 l 664 31 q 440 -29 571 -29 q 259 3 338 -29 q 128 98 181 36 q 47 249 75 160 q 19 449 19 338 q 49 624 19 544 q 132 760 78 703 q 262 850 186 818 q 431 882 338 882 q 556 863 497 882 q 664 811 615 844 l 664 854 l 1292 854 l 1292 704 m 425 724 q 330 702 372 724 q 258 642 288 681 q 212 552 228 604 q 196 438 196 500 q 214 315 196 372 q 265 215 232 257 q 342 148 297 172 q 443 124 388 124 q 532 145 492 124 q 601 205 572 167 q 645 296 629 243 q 661 411 661 349 q 425 724 661 724 z "},"œ":{"ha":1106,"x_min":15,"x_max":1088,"o":"m 653 272 q 664 213 653 240 q 694 163 675 185 q 738 128 713 140 q 794 115 764 115 q 867 135 835 115 q 908 186 899 154 l 1079 186 q 978 36 1051 89 q 803 -17 904 -17 q 567 65 649 -17 q 342 -17 485 -17 q 203 8 264 -17 q 101 76 143 32 q 38 181 60 119 q 15 317 15 243 q 38 453 15 392 q 103 558 61 514 q 206 626 146 601 q 342 650 267 650 q 470 628 413 650 q 569 565 528 606 q 665 628 610 606 q 790 650 719 650 q 1088 272 1088 650 l 653 272 m 342 508 q 188 317 188 508 q 342 124 188 124 q 415 140 385 124 q 463 186 444 157 q 490 253 482 215 q 497 332 497 290 q 456 458 497 408 q 342 508 414 508 m 917 378 q 873 481 910 444 q 788 517 836 517 q 700 478 736 517 q 658 378 664 440 l 917 378 z "},"Š":{"ha":718,"x_min":8,"x_max":710,"o":"m 511 601 q 459 697 506 664 q 342 731 413 731 q 235 703 279 731 q 190 628 190 675 q 221 566 190 592 q 322 524 251 540 q 422 499 379 510 q 497 478 464 488 q 555 459 529 468 q 604 439 581 450 q 681 371 653 415 q 710 256 710 326 q 684 139 710 190 q 615 51 658 88 q 513 -4 571 15 q 388 -24 454 -24 q 8 263 17 -24 l 181 263 q 233 158 182 196 q 364 121 285 121 q 428 128 397 121 q 484 151 460 136 q 522 185 508 165 q 536 229 536 206 q 404 338 536 306 q 236 383 293 364 q 154 413 179 401 q 57 492 88 443 q 26 615 26 540 q 47 719 26 671 q 108 803 68 768 q 206 860 147 839 q 342 881 265 881 q 474 860 413 881 q 581 804 535 840 q 653 717 626 768 q 683 601 681 665 l 511 601 m 439 926 l 285 926 l 197 1036 l 297 1036 l 363 947 l 425 1036 l 524 1036 l 439 926 z "},"š":{"ha":600,"x_min":11,"x_max":593,"o":"m 410 442 q 297 525 397 525 q 227 508 257 525 q 197 463 197 490 q 300 404 197 425 q 492 351 450 371 q 593 203 593 301 q 516 38 593 94 q 313 -19 439 -19 q 195 -3 250 -19 q 100 42 140 13 q 36 112 60 71 q 11 203 13 153 l 183 203 q 218 133 183 158 q 311 107 253 107 q 392 126 358 107 q 426 174 426 144 q 401 207 426 190 q 325 235 376 224 q 136 289 176 269 q 35 439 35 336 q 51 519 35 481 q 101 588 68 558 q 185 636 135 618 q 306 654 236 654 q 410 639 361 654 q 494 596 458 624 q 551 528 529 568 q 575 442 572 489 l 410 442 m 381 706 l 226 706 l 139 815 l 239 815 l 304 726 l 367 815 l 465 815 l 381 706 z "},"Ÿ":{"ha":768,"x_min":4,"x_max":764,"o":"m 478 321 l 478 0 l 300 0 l 300 322 l 4 854 l 213 854 l 392 507 l 558 854 l 764 854 l 478 321 m 550 979 q 531 941 550 956 q 488 926 511 926 q 444 941 463 926 q 425 979 425 956 q 444 1017 425 1003 q 488 1032 463 1032 q 531 1017 511 1032 q 550 979 550 1003 m 347 979 q 328 941 347 956 q 286 926 310 926 q 242 941 261 926 q 222 979 222 956 q 242 1017 222 1003 q 286 1032 261 1032 q 328 1017 310 1032 q 347 979 347 1003 z "},"Ž":{"ha":678,"x_min":6,"x_max":672,"o":"m 672 714 l 226 151 l 672 151 l 672 0 l 6 0 l 6 151 l 449 704 l 18 704 l 18 854 l 672 854 l 672 714 m 419 926 l 265 926 l 178 1036 l 278 1036 l 343 947 l 406 1036 l 504 1036 l 419 926 z "},"ž":{"ha":565,"x_min":11,"x_max":557,"o":"m 547 497 l 225 136 l 557 136 l 557 0 l 11 0 l 11 129 l 335 500 l 33 500 l 33 633 l 547 633 l 547 497 m 363 706 l 208 706 l 121 815 l 221 815 l 286 726 l 349 815 l 447 815 l 363 706 z "},"ˆ":{"ha":700,"x_min":249,"x_max":575,"o":"m 575 706 l 475 706 l 410 796 l 349 706 l 249 706 l 335 815 l 489 815 l 575 706 z "},"ˇ":{"ha":700,"x_min":247,"x_max":574,"o":"m 489 706 l 335 706 l 247 815 l 347 815 l 413 726 l 475 815 l 574 815 l 489 706 z "},"˚":{"ha":679,"x_min":281,"x_max":503,"o":"m 503 754 q 470 679 503 708 q 392 650 438 650 q 314 679 347 650 q 281 754 281 708 q 314 827 281 799 q 392 856 347 856 q 469 827 436 856 q 503 754 503 799 m 463 754 q 441 801 463 782 q 392 819 419 819 q 342 801 363 819 q 321 754 321 782 q 342 707 321 725 q 392 689 363 689 q 441 707 419 689 q 463 754 463 725 z "},"˜":{"ha":663,"x_min":225,"x_max":588,"o":"m 588 831 q 558 746 588 779 q 479 713 528 713 q 434 722 463 713 q 378 744 406 732 q 326 767 350 757 q 296 776 303 776 q 264 765 274 776 q 243 714 254 754 l 225 714 q 332 831 226 831 q 377 821 350 831 q 432 799 404 811 q 483 778 460 788 q 517 768 507 768 q 569 831 554 768 l 588 831 z "},"–":{"ha":553,"x_min":29,"x_max":524,"o":"m 524 256 l 29 256 l 29 411 l 524 411 l 524 256 z "},"—":{"ha":783,"x_min":29,"x_max":756,"o":"m 756 256 l 29 256 l 29 411 l 756 411 l 756 256 z "},"‘":{"ha":236,"x_min":29,"x_max":208,"o":"m 208 714 l 108 714 q 208 576 113 603 l 208 514 q 51 642 89 529 q 29 888 29 704 l 208 888 l 208 714 z "},"’":{"ha":236,"x_min":29,"x_max":208,"o":"m 208 888 q 186 642 208 704 q 29 514 146 528 l 29 576 q 128 714 124 604 l 29 714 l 29 888 l 208 888 z "},"‚":{"ha":251,"x_min":38,"x_max":218,"o":"m 218 174 q 209 -1 218 68 q 179 -112 200 -71 q 124 -174 158 -154 q 38 -200 89 -193 l 38 -136 q 138 0 133 -111 l 38 0 l 38 174 l 218 174 z "},"“":{"ha":450,"x_min":29,"x_max":422,"o":"m 208 714 l 108 714 q 208 576 113 603 l 208 514 q 51 642 89 529 q 29 888 29 704 l 208 888 l 208 714 m 422 714 l 322 714 q 422 576 328 603 l 422 514 q 265 642 303 529 q 243 888 243 704 l 422 888 l 422 714 z "},"”":{"ha":450,"x_min":29,"x_max":422,"o":"m 208 888 q 186 642 208 704 q 29 514 146 528 l 29 576 q 128 714 124 604 l 29 714 l 29 888 l 208 888 m 422 888 q 400 642 422 704 q 243 514 360 528 l 243 576 q 343 714 336 603 l 243 714 l 243 888 l 422 888 z "},"„":{"ha":478,"x_min":38,"x_max":432,"o":"m 218 174 q 209 -1 218 68 q 179 -112 200 -71 q 124 -174 158 -154 q 38 -200 89 -193 l 38 -136 q 138 0 133 -111 l 38 0 l 38 174 l 218 174 m 432 174 q 423 -1 432 68 q 393 -112 414 -71 q 338 -174 372 -154 q 251 -200 303 -193 l 251 -136 q 351 0 347 -111 l 251 0 l 251 174 l 432 174 z "},"•":{"ha":569,"x_min":38,"x_max":542,"o":"m 406 408 l 450 232 l 293 325 l 138 226 l 178 406 l 38 522 l 219 540 l 285 710 l 360 542 l 542 531 l 406 408 z "},"…":{"ha":1035,"x_min":78,"x_max":961,"o":"m 257 0 l 78 0 l 78 174 l 257 174 l 257 0 m 608 0 l 429 0 l 429 174 l 608 174 l 608 0 m 961 0 l 781 0 l 781 174 l 961 174 l 961 0 z "},"€":{"ha":799,"x_min":11,"x_max":774,"o":"m 607 664 q 542 709 581 694 q 468 724 504 724 q 344 681 396 724 q 268 558 292 639 l 549 558 l 496 458 l 250 458 l 250 426 q 251 394 250 410 q 253 364 251 379 l 444 364 l 392 267 l 278 267 q 458 132 332 132 q 625 219 575 132 l 774 136 q 645 19 725 61 q 464 -24 565 -24 q 337 -6 397 -24 q 226 49 276 13 q 140 139 176 85 q 86 267 104 193 l 11 267 l 35 364 l 71 364 q 69 390 69 376 q 69 417 69 403 q 69 438 69 428 q 71 458 69 449 l 11 458 l 35 558 l 82 558 q 217 796 122 714 q 467 878 311 878 q 689 814 592 878 l 607 664 z "},"™":{"ha":596,"x_min":19,"x_max":567,"o":"m 256 789 l 174 789 l 174 524 l 104 524 l 104 789 l 19 789 l 19 854 l 256 854 l 256 789 m 567 524 l 500 524 l 500 706 l 429 524 l 351 714 l 351 525 l 286 525 l 286 854 l 365 854 l 428 685 l 490 854 l 567 854 l 567 524 z "},"Ω":{"ha":1499,"x_min":28,"x_max":1474,"o":"m 1474 272 l 28 272 l 28 633 l 1474 633 l 1474 272 m 1138 590 l 1138 444 l 1125 590 l 1058 590 l 1058 365 l 1100 365 l 1100 510 l 1111 365 l 1179 365 l 1179 590 l 1138 590 m 524 590 l 524 365 l 617 365 l 631 390 l 631 464 l 621 481 l 631 500 l 631 565 l 617 590 l 524 590 m 946 590 l 935 565 l 935 390 l 946 365 l 1026 365 l 1040 390 l 1040 565 l 1028 590 l 946 590 m 275 590 l 275 365 l 319 365 l 319 464 l 333 464 l 333 365 l 382 365 l 382 456 l 364 483 l 382 508 l 382 565 l 368 590 l 275 590 m 1315 590 l 1301 565 l 1301 488 l 1317 464 l 1360 453 l 1360 408 l 1349 408 l 1349 442 l 1301 442 l 1301 390 l 1315 365 l 1392 365 l 1406 390 l 1406 475 l 1390 500 l 1349 510 l 1349 549 l 1360 549 l 1360 521 l 1406 521 l 1406 565 l 1393 590 l 1315 590 m 178 590 l 150 447 l 150 365 l 194 365 l 194 408 l 210 408 l 210 365 l 257 365 l 257 447 l 226 590 l 178 590 m 426 590 l 400 447 l 400 365 l 444 365 l 444 408 l 458 408 l 458 365 l 504 365 l 504 447 l 475 590 l 426 590 m 714 590 l 714 365 l 789 365 l 789 415 l 758 415 l 758 461 l 789 461 l 789 500 l 758 500 l 758 542 l 789 542 l 789 590 l 714 590 m 840 590 l 840 365 l 888 365 l 888 458 l 915 458 l 915 497 l 888 497 l 888 542 l 915 542 l 915 590 l 840 590 m 1193 590 l 1193 542 l 1218 542 l 1218 365 l 1264 365 l 1264 542 l 1289 542 l 1289 590 l 1193 590 m 61 590 l 61 365 l 132 365 l 132 415 l 106 415 l 106 590 l 61 590 m 649 590 l 649 365 l 696 365 l 696 590 l 649 590 m 993 408 l 979 408 l 979 549 l 993 549 l 993 408 m 210 464 l 210 442 l 194 442 l 194 464 l 201 524 l 210 464 m 458 442 l 444 442 l 444 464 l 450 524 l 458 442 m 582 408 l 569 408 l 569 464 l 582 464 l 582 408 m 582 500 l 569 500 l 569 549 l 582 549 l 582 500 m 333 500 l 319 500 l 319 549 l 333 549 l 333 500 z "},"−":{"ha":564,"x_min":29,"x_max":535,"o":"m 535 389 l 29 389 l 29 522 l 535 522 l 535 389 z "},"~":{"ha":847,"x_min":19,"x_max":814,"o":"m 633 590 q 612 646 629 619 q 569 692 594 672 q 510 724 543 713 q 440 735 476 735 q 342 713 386 735 q 267 649 299 690 q 219 550 236 608 q 201 421 201 492 q 219 299 201 354 q 267 203 236 243 q 342 142 299 164 q 439 121 386 121 q 520 136 482 121 q 587 178 558 151 q 631 241 615 206 q 647 317 647 276 l 458 317 l 458 460 l 814 460 l 814 0 l 667 0 l 663 85 q 563 1 631 31 q 407 -29 494 -29 q 248 6 319 -29 q 126 102 176 40 q 47 247 75 164 q 19 428 19 331 q 47 605 19 522 q 126 749 74 688 q 258 847 179 811 q 440 882 336 882 q 583 860 517 882 q 699 800 649 839 q 778 708 749 761 q 813 590 808 654 l 633 590 z "},"¶":{"ha":667,"x_min":19,"x_max":633,"o":"m 633 -300 l 465 -300 l 465 83 q 279 -17 399 -17 q 170 8 218 -17 q 89 75 122 32 q 38 178 56 118 q 19 311 19 239 q 39 450 19 388 q 94 557 58 513 q 181 626 131 601 q 294 650 232 650 q 472 556 411 650 l 472 633 l 633 633 l 633 -300 m 335 507 q 193 311 193 507 q 232 173 193 226 q 335 119 271 119 q 435 170 394 119 q 476 301 476 221 q 335 507 476 507 z "},"×":{"ha":564,"x_min":56,"x_max":508,"o":"m 414 229 l 282 361 l 150 229 l 56 324 l 188 456 l 56 588 l 150 682 l 282 550 l 414 682 l 508 588 l 376 456 l 508 324 l 414 229 z "},"Þ":{"ha":681,"x_min":29,"x_max":681,"o":"m 208 322 l 378 322 q 482 358 440 322 q 524 449 524 393 q 484 537 524 501 q 378 572 444 572 l 208 572 l 208 322 m 208 854 l 208 721 l 424 721 q 526 699 479 721 q 608 640 574 678 q 662 553 643 603 q 681 444 681 503 q 661 337 681 386 q 607 252 642 288 q 524 197 572 217 q 417 176 475 176 l 208 176 l 208 0 l 29 0 l 29 854 l 208 854 z "},"þ":{"ha":667,"x_min":33,"x_max":647,"o":"m 331 507 q 190 301 190 507 q 230 170 190 221 q 332 119 269 119 q 435 173 394 119 q 475 311 475 226 q 331 507 475 507 m 199 864 l 199 554 q 265 627 224 604 q 372 650 306 650 q 493 622 442 650 q 579 547 544 594 q 631 439 614 500 q 647 311 647 378 q 630 179 647 239 q 579 76 613 119 q 497 8 546 32 q 386 -17 449 -17 q 277 6 328 -17 q 199 79 226 28 l 199 -300 l 33 -300 l 33 864 l 199 864 z "},"Ð":{"ha":774,"x_min":8,"x_max":756,"o":"m 360 854 q 519 826 447 854 q 644 743 592 797 q 726 611 697 689 q 756 436 756 533 q 729 258 756 339 q 654 121 703 178 q 538 32 606 64 q 388 0 471 0 l 29 0 l 29 363 l 8 363 l 8 490 l 29 490 l 29 854 l 360 854 m 340 363 l 203 363 l 203 146 l 351 146 q 522 217 469 146 q 574 436 574 289 q 519 643 574 581 q 336 706 464 706 l 203 706 l 203 490 l 340 490 l 340 363 z "},"ð":{"ha":667,"x_min":19,"x_max":633,"o":"m 333 507 q 190 311 190 507 q 229 174 190 226 q 332 122 268 122 q 389 135 363 122 q 435 173 415 149 q 465 230 454 197 q 475 301 475 263 q 333 507 475 507 m 467 864 q 586 679 539 806 q 633 365 633 553 q 604 182 633 256 q 531 65 575 108 q 435 2 486 21 q 339 -17 383 -17 q 192 10 253 -17 q 94 84 132 38 q 38 192 56 131 q 19 322 19 253 q 38 455 19 394 q 90 558 56 515 q 172 626 124 601 q 282 650 221 650 q 467 550 397 650 q 442 649 463 601 q 391 738 421 697 q 324 810 361 778 q 253 864 288 843 l 467 864 z "},"Ł":{"ha":638,"x_min":29,"x_max":632,"o":"m 390 451 l 208 371 l 208 156 l 632 156 l 632 0 l 29 0 l 29 854 l 208 854 l 208 485 l 390 565 l 390 451 z "},"ł":{"ha":233,"x_min":-46,"x_max":282,"o":"m 200 529 l 282 565 l 282 451 l 200 415 l 200 0 l 33 0 l 33 342 l -46 307 l -46 421 l 33 456 l 33 864 l 200 864 l 200 529 z "},"¢":{"ha":613,"x_min":22,"x_max":604,"o":"m 346 756 q 528 684 458 749 q 604 514 597 619 l 436 514 q 346 614 422 599 l 346 233 q 406 268 382 242 q 435 336 431 294 l 603 336 q 574 243 596 286 q 519 167 553 200 q 442 115 486 135 q 346 92 397 96 l 346 0 l 286 0 l 286 90 q 94 183 165 99 q 22 431 22 268 q 94 669 22 590 q 286 756 167 747 l 286 854 l 346 854 l 346 756 m 188 435 q 216 294 188 343 q 286 233 244 244 l 286 615 q 215 564 243 606 q 188 435 188 522 z "},"°":{"ha":285,"x_min":10,"x_max":258,"o":"m 135 810 q 76 736 76 810 q 135 661 76 661 q 193 736 193 661 q 135 810 193 810 m 135 864 q 226 829 193 864 q 258 736 258 794 q 226 643 258 678 q 135 608 193 608 q 42 643 75 608 q 10 736 10 678 q 43 829 10 794 q 135 864 76 864 z "},"‰":{"ha":1510,"x_min":17,"x_max":1482,"o":"m 1360 197 q 1332 270 1360 244 q 1265 296 1304 296 q 1198 268 1224 296 q 1172 200 1172 240 q 1200 135 1172 160 q 1268 111 1228 111 q 1333 134 1308 111 q 1360 197 1358 157 m 1482 194 q 1464 113 1481 150 q 1418 47 1447 75 q 1350 3 1389 19 q 1265 -12 1311 -12 q 1181 3 1219 -12 q 1113 49 1142 19 q 1067 119 1083 78 q 1050 213 1050 161 q 1067 294 1050 257 q 1114 359 1085 332 q 1182 401 1143 386 q 1265 417 1221 417 q 1348 401 1308 417 q 1417 356 1388 385 q 1465 285 1447 326 q 1482 194 1482 244 m 235 721 q 165 694 193 721 q 138 625 138 667 q 165 560 138 583 q 233 536 192 536 q 300 560 274 536 q 326 625 326 585 q 299 696 326 671 q 235 721 271 721 m 885 197 q 857 270 885 244 q 790 296 829 296 q 723 268 749 296 q 697 200 697 240 q 725 135 697 160 q 793 111 753 111 q 858 134 833 111 q 885 197 883 157 m 315 -24 l 229 -24 l 701 846 l 789 846 l 315 -24 m 450 625 q 433 539 450 578 q 388 472 417 500 q 319 429 358 444 q 235 414 281 414 q 148 430 188 414 q 79 475 108 446 q 33 545 50 504 q 17 636 17 586 q 34 716 17 678 q 81 783 51 754 q 150 828 111 811 q 231 846 189 846 q 313 828 274 846 q 383 779 353 810 q 432 708 414 749 q 450 625 450 668 m 1007 194 q 989 113 1006 150 q 943 47 972 75 q 875 3 914 19 q 790 -12 836 -12 q 706 3 744 -12 q 638 49 667 19 q 592 119 608 78 q 575 213 575 161 q 592 294 575 257 q 639 359 610 332 q 707 401 668 386 q 790 417 746 417 q 873 401 833 417 q 942 356 913 385 q 990 285 972 326 q 1007 194 1007 244 z "},"÷":{"ha":549,"x_min":22,"x_max":528,"o":"m 354 183 l 214 183 l 214 319 l 354 319 l 354 183 m 354 594 l 214 594 l 214 729 l 354 729 l 354 594 m 528 389 l 22 389 l 22 522 l 528 522 l 528 389 z "},"⁄":{"ha":168,"x_min":-174,"x_max":365,"o":"m -87 0 l -174 0 l 278 854 l 365 854 l -87 0 z "},"¼":{"ha":808,"x_min":75,"x_max":724,"o":"m 250 432 l 165 432 l 165 729 l 75 729 l 75 789 q 155 808 133 789 q 181 864 176 826 l 250 864 l 250 432 m 501 161 l 590 161 l 590 315 l 501 161 m 674 161 l 724 161 l 724 96 l 674 96 l 674 0 l 589 0 l 589 96 l 419 96 l 419 169 l 579 436 l 674 436 l 674 161 m 233 0 l 147 0 l 599 854 l 686 854 l 233 0 z "},"½":{"ha":808,"x_min":75,"x_max":771,"o":"m 250 432 l 165 432 l 165 729 l 75 729 l 75 789 q 155 808 133 789 q 181 864 176 826 l 250 864 l 250 432 m 771 0 l 475 0 q 480 56 475 31 q 499 106 485 81 q 540 158 514 131 q 606 217 565 185 q 643 247 628 235 q 668 270 658 260 q 682 291 678 281 q 686 315 686 301 q 669 360 686 349 q 626 372 651 372 q 582 357 599 372 q 563 296 565 342 l 481 296 q 520 406 481 367 q 622 446 560 446 q 726 415 682 446 q 769 324 769 385 q 763 274 769 294 q 742 235 757 254 q 703 197 728 217 q 644 153 679 178 q 601 110 618 133 q 583 75 585 86 l 771 75 l 771 0 m 233 0 l 147 0 l 599 854 l 686 854 l 233 0 z "},"¾":{"ha":808,"x_min":57,"x_max":724,"o":"m 501 161 l 590 161 l 590 315 l 501 161 m 674 161 l 724 161 l 724 96 l 674 96 l 674 0 l 589 0 l 589 96 l 419 96 l 419 169 l 579 436 l 674 436 l 674 161 m 233 0 l 147 0 l 599 854 l 686 854 l 233 0 m 204 864 q 301 831 263 864 q 340 746 340 799 q 328 689 340 715 q 289 647 315 663 q 338 610 321 635 q 354 544 354 586 q 309 441 354 478 q 200 404 264 404 q 97 442 136 404 q 57 547 57 481 l 139 547 q 204 474 139 474 q 249 492 231 474 q 267 539 267 510 q 244 592 267 575 q 169 608 222 608 l 169 671 q 236 685 217 671 q 256 732 256 700 q 240 779 256 763 q 201 796 225 796 q 160 777 176 796 q 144 725 144 758 l 64 725 q 103 826 64 788 q 204 864 142 864 z "},"²":{"ha":379,"x_min":42,"x_max":338,"o":"m 338 418 l 42 418 q 47 474 42 449 q 66 524 51 499 q 106 576 81 549 q 172 635 132 603 q 210 665 194 653 q 235 688 225 678 q 249 709 244 699 q 253 733 253 719 q 235 778 253 767 q 193 790 218 790 q 149 775 165 790 q 129 714 132 760 l 47 714 q 87 824 47 785 q 189 864 126 864 q 292 833 249 864 q 336 742 336 803 q 330 692 336 713 q 309 653 324 672 q 270 615 294 635 q 211 571 246 596 q 168 528 185 551 q 150 493 151 504 l 338 493 l 338 418 z "},"³":{"ha":354,"x_min":17,"x_max":314,"o":"m 164 864 q 261 831 222 864 q 300 746 300 799 q 288 689 300 715 q 249 647 275 663 q 297 610 281 635 q 314 544 314 586 q 269 441 314 478 q 160 404 224 404 q 56 442 96 404 q 17 547 17 481 l 99 547 q 164 474 99 474 q 208 492 190 474 q 226 539 226 510 q 204 592 226 575 q 129 608 182 608 l 129 671 q 196 685 176 671 q 215 732 215 700 q 200 779 215 763 q 161 796 185 796 q 120 777 136 796 q 104 725 104 758 l 24 725 q 63 826 24 788 q 164 864 101 864 z "},"¹":{"ha":240,"x_min":19,"x_max":194,"o":"m 194 432 l 110 432 l 110 729 l 19 729 l 19 789 q 99 808 78 789 q 125 864 121 826 l 194 864 l 194 432 z "},"£":{"ha":614,"x_min":33,"x_max":585,"o":"m 585 343 l 213 343 l 213 156 l 585 156 l 585 0 l 33 0 l 33 604 q 104 792 33 721 q 314 864 175 864 q 425 851 375 864 q 510 802 475 838 q 565 703 546 767 q 583 540 583 640 l 583 521 l 415 521 l 415 568 q 392 685 415 651 q 314 718 369 718 q 233 688 253 718 q 213 588 213 657 l 213 449 l 585 449 l 585 343 z "},"ª":{"ha":251,"x_min":21,"x_max":226,"o":"m 167 749 q 135 738 153 742 q 92 723 103 731 q 82 700 82 715 q 108 675 82 675 q 150 688 132 675 q 168 728 168 700 q 167 738 168 732 q 167 749 167 744 m 129 872 q 202 849 178 872 q 226 782 226 825 l 226 638 l 171 638 q 167 656 169 651 q 97 633 146 633 q 42 650 63 633 q 21 697 21 667 q 51 757 21 743 q 126 776 81 771 q 165 799 165 781 q 153 819 165 813 q 126 825 142 825 q 86 792 92 825 l 29 792 q 55 851 32 829 q 129 872 78 872 z "},"º":{"ha":251,"x_min":10,"x_max":238,"o":"m 124 813 q 71 744 71 813 q 124 676 71 676 q 178 744 178 676 q 124 813 178 813 m 124 863 q 207 830 176 863 q 238 744 238 797 q 207 660 238 692 q 124 628 176 628 q 40 660 71 628 q 10 744 10 692 q 40 830 10 797 q 124 863 71 863 z "},"ﬁ":{"ha":601,"x_min":6,"x_max":572,"o":"m 572 708 l 379 708 q 326 707 347 708 q 290 698 304 706 q 270 675 276 690 q 264 633 264 660 l 372 633 l 372 514 l 264 514 l 264 0 l 99 0 l 99 514 l 6 514 l 6 633 l 99 633 q 162 803 99 742 q 356 864 225 864 l 572 864 l 572 708 m 572 0 l 406 0 l 406 633 l 572 633 l 572 0 z "},"ﬂ":{"ha":606,"x_min":6,"x_max":572,"o":"m 572 0 l 406 0 l 406 514 l 264 514 l 264 0 l 99 0 l 99 514 l 6 514 l 6 633 l 99 633 q 368 864 99 864 l 368 729 q 284 708 304 729 q 264 633 264 688 l 406 633 l 406 864 l 572 864 l 572 0 z "},"·":{"ha":236,"x_min":29,"x_max":208,"o":"m 208 324 l 29 324 l 29 497 l 208 497 l 208 324 z "}}}
